<?xml version="1.0" standalone="no"?>
<!DOCTYPE svg PUBLIC "-//W3C//DTD SVG 20010904//EN"
 "http://www.w3.org/TR/2001/REC-SVG-20010904/DTD/svg10.dtd">
<svg version="1.0" xmlns="http://www.w3.org/2000/svg"
 width="1024.000000pt" height="1024.000000pt" viewBox="0 0 1024.000000 1024.000000"
 preserveAspectRatio="xMidYMid meet">
<metadata>
Created by potrace 1.11, written by Peter Selinger 2001-2013
</metadata>
<g transform="translate(0.000000,1024.000000) scale(0.100000,-0.100000)"
fill="#000000" stroke="none">
<path d="M1795 8810 c-147 -8 -218 -28 -300 -85 -27 -19 -219 -205 -425 -413
-853 -862 -1035 -1050 -1052 -1088 -11 -25 -18 -64 -18 -109 0 -95 27 -148
131 -260 46 -50 145 -158 220 -240 513 -568 1441 -1590 1578 -1740 239 -260
327 -358 511 -565 91 -102 266 -295 390 -430 370 -404 497 -546 660 -740 85
-102 216 -252 290 -335 74 -82 349 -393 610 -690 261 -296 498 -562 526 -591
74 -74 140 -104 228 -104 76 0 133 20 192 65 18 14 137 145 266 292 128 148
577 662 998 1143 421 481 995 1138 1275 1460 281 322 591 675 689 785 98 110
391 438 650 730 259 291 585 658 725 815 281 316 301 345 301 450 0 128 23
100 -733 858 -406 407 -706 699 -741 723 -32 21 -90 49 -127 60 l-69 21 -2538
-7 c-1395 -4 -2627 -7 -2737 -8 -110 -1 -463 1 -785 4 -322 4 -643 3 -715 -1z
m1250 -232 c325 -1 1696 2 3047 6 l2457 8 53 -25 c45 -20 160 -131 723 -696
369 -369 674 -680 679 -691 5 -12 5 -28 0 -40 -9 -18 -728 -833 -1383 -1564
-172 -193 -478 -540 -680 -770 -201 -231 -822 -942 -1380 -1580 -558 -639
-1073 -1228 -1145 -1311 -231 -267 -251 -284 -306 -255 -18 10 -263 284 -765
855 -120 138 -294 333 -385 435 -91 102 -224 255 -295 340 -152 182 -198 234
-610 685 -171 187 -385 423 -475 525 -91 102 -307 340 -480 530 -173 190 -598
658 -945 1040 -346 382 -696 768 -777 857 -104 115 -148 170 -148 187 0 17 36
58 138 156 75 73 204 203 286 289 83 86 332 340 554 564 310 314 414 413 448
429 37 16 75 21 202 25 86 2 159 7 162 9 2 3 102 3 220 -1 118 -3 481 -7 805
-7z"/>
<path d="M6618 8373 c-261 -2 -408 -7 -408 -13 0 -6 22 -10 49 -10 72 0 247
-36 366 -75 243 -79 417 -202 568 -400 252 -329 347 -742 262 -1143 -76 -362
-323 -660 -707 -853 -94 -47 -98 -50 -87 -72 7 -12 167 -309 356 -660 188
-350 343 -642 343 -648 0 -6 4 -9 9 -7 9 3 498 561 1680 1918 338 388 623 715
634 727 l20 22 -109 118 c-60 65 -315 327 -568 583 -322 327 -473 473 -508
493 l-50 27 -722 -2 c-396 -2 -904 -4 -1128 -5z m2238 -666 c241 -243 461
-468 487 -499 l48 -57 -653 -748 c-359 -411 -803 -920 -987 -1130 l-334 -383
-224 416 c-123 229 -223 420 -221 424 2 4 42 34 90 66 353 240 564 557 633
952 57 332 6 690 -141 983 -70 142 -147 254 -272 401 -13 16 20 17 560 18
l575 0 439 -443z"/>
<path d="M1993 8350 l-273 -5 -80 -80 c-281 -278 -1097 -1119 -1104 -1138 -6
-16 -4 -32 5 -49 15 -28 1232 -1370 1598 -1763 124 -132 375 -399 559 -592
l334 -353 339 0 339 0 0 1600 0 1600 -335 0 -335 0 0 395 0 395 -387 -2 c-214
-1 -511 -5 -660 -8z m817 -615 l0 -395 330 0 330 0 0 -1370 0 -1370 -169 0
-170 0 -268 283 c-471 496 -785 835 -1421 1536 l-621 684 412 420 c227 230
449 459 495 508 l83 89 412 3 c227 1 451 3 500 5 l87 2 0 -395z"/>
<path d="M4950 7001 l0 -571 265 0 c146 0 309 5 361 11 325 36 517 161 586
383 29 92 31 270 4 361 -41 138 -132 241 -271 306 -145 67 -186 72 -587 77
l-358 4 0 -571z m670 329 c146 -19 252 -71 295 -144 49 -84 54 -247 10 -339
-60 -126 -258 -186 -612 -187 l-133 0 0 340 0 340 183 0 c100 0 216 -5 257
-10z"/>
<path d="M4950 5020 l0 -650 300 0 300 0 0 -405 0 -405 -910 2 c-501 2 -909 0
-908 -3 5 -12 1249 -1382 1328 -1462 90 -91 116 -98 176 -45 53 47 1336 1518
1340 1537 2 9 -236 480 -529 1046 l-532 1030 -283 3 -282 2 0 -650z m787 -290
c200 -388 410 -796 468 -907 l104 -201 -566 -649 c-311 -356 -570 -648 -574
-648 -4 0 -212 225 -462 500 l-454 500 763 3 764 2 0 635 0 635 -300 0 -300 0
0 420 0 421 96 -3 97 -3 364 -705z"/>
</g>
</svg>
