<?xml version="1.0" encoding="UTF-8" standalone="no"?>
<!DOCTYPE svg PUBLIC "-//W3C//DTD SVG 1.1//EN"
 "http://www.w3.org/Graphics/SVG/1.1/DTD/svg11.dtd">
<!-- Generated by graphviz version 2.40.1 (20161225.0304)
 -->
<!-- Title: dependencies Pages: 1 -->
<svg width="504pt" height="284pt"
 viewBox="0.00 0.00 504.00 284.00" xmlns="http://www.w3.org/2000/svg" xmlns:xlink="http://www.w3.org/1999/xlink">
<g id="graph0" class="graph" transform="scale(1 1) rotate(0) translate(4 280)">
<title>dependencies</title>
<polygon fill="#ffffff" stroke="transparent" points="-4,4 -4,-280 500,-280 500,4 -4,4"/>
<text text-anchor="start" x="227.0091" y="-42.4" font-family="sans-serif" font-weight="bold" font-size="14.00" fill="#000000">Legend</text>
<polygon fill="#ffffb3" stroke="transparent" points="14,-10 14,-30 34,-30 34,-10 14,-10"/>
<text text-anchor="start" x="37.629" y="-15.4" font-family="sans-serif" font-size="14.00" fill="#000000"> &#160;Declarations</text>
<polygon fill="#8dd3c7" stroke="transparent" points="127,-10 127,-30 147,-30 147,-10 127,-10"/>
<text text-anchor="start" x="150.7251" y="-15.4" font-family="sans-serif" font-size="14.00" fill="#000000"> &#160;Module</text>
<polygon fill="#80b1d3" stroke="transparent" points="213,-10 213,-30 233,-30 233,-10 213,-10"/>
<text text-anchor="start" x="236.7812" y="-15.4" font-family="sans-serif" font-size="14.00" fill="#000000"> &#160;Bootstrap</text>
<polygon fill="#fdb462" stroke="transparent" points="310,-10 310,-30 330,-30 330,-10 310,-10"/>
<text text-anchor="start" x="333.6732" y="-15.4" font-family="sans-serif" font-size="14.00" fill="#000000"> &#160;Providers</text>
<polygon fill="#fb8072" stroke="transparent" points="406,-10 406,-30 426,-30 426,-10 406,-10"/>
<text text-anchor="start" x="429.7258" y="-15.4" font-family="sans-serif" font-size="14.00" fill="#000000"> &#160;Exports</text>
<g id="clust1" class="cluster">
<title>cluster_RaFtcValueTableModule</title>
<polygon fill="none" stroke="#000000" stroke-dasharray="1,5" points="71,-70 71,-268 425,-268 425,-70 71,-70"/>
</g>
<g id="clust2" class="cluster">
<title>cluster_RaFtcValueTableModule_declarations</title>
<polygon fill="none" stroke="#000000" points="255,-78 255,-130 417,-130 417,-78 255,-78"/>
</g>
<g id="clust4" class="cluster">
<title>cluster_RaFtcValueTableModule_imports</title>
<polygon fill="none" stroke="#000000" points="79,-78 79,-130 247,-130 247,-78 79,-78"/>
</g>
<g id="clust5" class="cluster">
<title>cluster_RaFtcValueTableModule_exports</title>
<polygon fill="none" stroke="#000000" points="165,-208 165,-260 331,-260 331,-208 165,-208"/>
</g>
<!-- ValueTableComponent -->
<g id="node1" class="node">
<title>ValueTableComponent</title>
<polygon fill="#ffffb3" stroke="#000000" points="409.1317,-122 262.8683,-122 262.8683,-86 409.1317,-86 409.1317,-122"/>
<text text-anchor="middle" x="336" y="-99.8" font-family="Times,serif" font-size="14.00" fill="#000000">ValueTableComponent</text>
</g>
<!-- RaFtcValueTableModule -->
<g id="node2" class="node">
<title>RaFtcValueTableModule</title>
<polygon fill="#8dd3c7" stroke="#000000" points="327.2879,-187 324.2879,-191 303.2879,-191 300.2879,-187 168.7121,-187 168.7121,-151 327.2879,-151 327.2879,-187"/>
<text text-anchor="middle" x="248" y="-164.8" font-family="Times,serif" font-size="14.00" fill="#000000">RaFtcValueTableModule</text>
</g>
<!-- ValueTableComponent&#45;&gt;RaFtcValueTableModule -->
<g id="edge1" class="edge">
<title>ValueTableComponent&#45;&gt;RaFtcValueTableModule</title>
<path fill="none" stroke="#000000" d="M294.9141,-122.1061C294.9141,-122.1061 294.9141,-140.991 294.9141,-140.991"/>
<polygon fill="#000000" stroke="#000000" points="291.4142,-140.9909 294.9141,-150.991 298.4142,-140.991 291.4142,-140.9909"/>
</g>
<!-- ValueTableComponent  -->
<g id="node4" class="node">
<title>ValueTableComponent </title>
<polygon fill="#fb8072" stroke="#000000" points="323.1313,-252 172.8687,-252 172.8687,-216 323.1313,-216 323.1313,-252"/>
<text text-anchor="middle" x="248" y="-229.8" font-family="Times,serif" font-size="14.00" fill="#000000">ValueTableComponent </text>
</g>
<!-- RaFtcValueTableModule&#45;&gt;ValueTableComponent  -->
<g id="edge3" class="edge">
<title>RaFtcValueTableModule&#45;&gt;ValueTableComponent </title>
<path fill="none" stroke="#000000" stroke-dasharray="5,2" d="M248,-187.1061C248,-187.1061 248,-205.991 248,-205.991"/>
<polygon fill="#000000" stroke="#000000" points="244.5001,-205.9909 248,-215.991 251.5001,-205.991 244.5001,-205.9909"/>
</g>
<!-- RaFtcExpansionModule -->
<g id="node3" class="node">
<title>RaFtcExpansionModule</title>
<polygon fill="#8dd3c7" stroke="#000000" points="239.0912,-122 236.0912,-126 215.0912,-126 212.0912,-122 86.9088,-122 86.9088,-86 239.0912,-86 239.0912,-122"/>
<text text-anchor="middle" x="163" y="-99.8" font-family="Times,serif" font-size="14.00" fill="#000000">RaFtcExpansionModule</text>
</g>
<!-- RaFtcExpansionModule&#45;&gt;RaFtcValueTableModule -->
<g id="edge2" class="edge">
<title>RaFtcExpansionModule&#45;&gt;RaFtcValueTableModule</title>
<path fill="none" stroke="#000000" d="M203.9509,-122.1061C203.9509,-122.1061 203.9509,-140.991 203.9509,-140.991"/>
<polygon fill="#000000" stroke="#000000" points="200.451,-140.9909 203.9509,-150.991 207.451,-140.991 200.451,-140.9909"/>
</g>
</g>
</svg>
