<?xml version="1.0" encoding="UTF-8" standalone="no"?>
<!DOCTYPE svg PUBLIC "-//W3C//DTD SVG 1.1//EN"
 "http://www.w3.org/Graphics/SVG/1.1/DTD/svg11.dtd">
<!-- Generated by graphviz version 2.40.1 (20161225.0304)
 -->
<!-- Title: dependencies Pages: 1 -->
<svg width="504pt" height="211pt"
 viewBox="0.00 0.00 504.00 211.00" xmlns="http://www.w3.org/2000/svg" xmlns:xlink="http://www.w3.org/1999/xlink">
<g id="graph0" class="graph" transform="scale(1 1) rotate(0) translate(4 207)">
<title>dependencies</title>
<polygon fill="#ffffff" stroke="transparent" points="-4,4 -4,-207 500,-207 500,4 -4,4"/>
<text text-anchor="start" x="227.0091" y="-42.4" font-family="sans-serif" font-weight="bold" font-size="14.00" fill="#000000">Legend</text>
<polygon fill="#ffffb3" stroke="transparent" points="14,-10 14,-30 34,-30 34,-10 14,-10"/>
<text text-anchor="start" x="37.629" y="-15.4" font-family="sans-serif" font-size="14.00" fill="#000000"> &#160;Declarations</text>
<polygon fill="#8dd3c7" stroke="transparent" points="127,-10 127,-30 147,-30 147,-10 127,-10"/>
<text text-anchor="start" x="150.7251" y="-15.4" font-family="sans-serif" font-size="14.00" fill="#000000"> &#160;Module</text>
<polygon fill="#80b1d3" stroke="transparent" points="213,-10 213,-30 233,-30 233,-10 213,-10"/>
<text text-anchor="start" x="236.7812" y="-15.4" font-family="sans-serif" font-size="14.00" fill="#000000"> &#160;Bootstrap</text>
<polygon fill="#fdb462" stroke="transparent" points="310,-10 310,-30 330,-30 330,-10 310,-10"/>
<text text-anchor="start" x="333.6732" y="-15.4" font-family="sans-serif" font-size="14.00" fill="#000000"> &#160;Providers</text>
<polygon fill="#fb8072" stroke="transparent" points="406,-10 406,-30 426,-30 426,-10 406,-10"/>
<text text-anchor="start" x="429.7258" y="-15.4" font-family="sans-serif" font-size="14.00" fill="#000000"> &#160;Exports</text>
<g id="clust1" class="cluster">
<title>cluster_RaFtcUtilitiesModule</title>
<polygon fill="none" stroke="#000000" stroke-dasharray="1,5" points="93,-70 93,-195 403,-195 403,-70 93,-70"/>
</g>
<g id="clust6" class="cluster">
<title>cluster_RaFtcUtilitiesModule_providers</title>
<polygon fill="none" stroke="#000000" points="101,-78 101,-130 395,-130 395,-78 101,-78"/>
</g>
<!-- ControlService -->
<g id="node1" class="node">
<title>ControlService</title>
<ellipse fill="#fdb462" stroke="#000000" cx="318" cy="-104" rx="69.4993" ry="18"/>
<text text-anchor="middle" x="318" y="-99.8" font-family="Times,serif" font-size="14.00" fill="#000000">ControlService</text>
</g>
<!-- RaFtcUtilitiesModule -->
<g id="node3" class="node">
<title>RaFtcUtilitiesModule</title>
<polygon fill="#8dd3c7" stroke="#000000" points="313.0982,-187 310.0982,-191 289.0982,-191 286.0982,-187 174.9018,-187 174.9018,-151 313.0982,-151 313.0982,-187"/>
<text text-anchor="middle" x="244" y="-164.8" font-family="Times,serif" font-size="14.00" fill="#000000">RaFtcUtilitiesModule</text>
</g>
<!-- ControlService&#45;&gt;RaFtcUtilitiesModule -->
<g id="edge1" class="edge">
<title>ControlService&#45;&gt;RaFtcUtilitiesModule</title>
<path fill="none" stroke="#000000" d="M280.7747,-119.4041C280.7747,-119.4041 280.7747,-140.9397 280.7747,-140.9397"/>
<polygon fill="#000000" stroke="#000000" points="277.2748,-140.9397 280.7747,-150.9397 284.2748,-140.9398 277.2748,-140.9397"/>
</g>
<!-- ParseService -->
<g id="node2" class="node">
<title>ParseService</title>
<ellipse fill="#fdb462" stroke="#000000" cx="170" cy="-104" rx="60.8082" ry="18"/>
<text text-anchor="middle" x="170" y="-99.8" font-family="Times,serif" font-size="14.00" fill="#000000">ParseService</text>
</g>
<!-- ParseService&#45;&gt;RaFtcUtilitiesModule -->
<g id="edge2" class="edge">
<title>ParseService&#45;&gt;RaFtcUtilitiesModule</title>
<path fill="none" stroke="#000000" d="M202.9275,-119.4041C202.9275,-119.4041 202.9275,-140.9397 202.9275,-140.9397"/>
<polygon fill="#000000" stroke="#000000" points="199.4276,-140.9397 202.9275,-150.9397 206.4276,-140.9398 199.4276,-140.9397"/>
</g>
</g>
</svg>
