<?xml version="1.0" encoding="UTF-8" standalone="no"?>
<!DOCTYPE svg PUBLIC "-//W3C//DTD SVG 1.1//EN"
 "http://www.w3.org/Graphics/SVG/1.1/DTD/svg11.dtd">
<!-- Generated by graphviz version 2.40.1 (20161225.0304)
 -->
<!-- Title: dependencies Pages: 1 -->
<svg width="504pt" height="211pt"
 viewBox="0.00 0.00 504.00 211.00" xmlns="http://www.w3.org/2000/svg" xmlns:xlink="http://www.w3.org/1999/xlink">
<g id="graph0" class="graph" transform="scale(1 1) rotate(0) translate(4 207)">
<title>dependencies</title>
<polygon fill="#ffffff" stroke="transparent" points="-4,4 -4,-207 500,-207 500,4 -4,4"/>
<text text-anchor="start" x="227.0091" y="-42.4" font-family="sans-serif" font-weight="bold" font-size="14.00" fill="#000000">Legend</text>
<polygon fill="#ffffb3" stroke="transparent" points="14,-10 14,-30 34,-30 34,-10 14,-10"/>
<text text-anchor="start" x="37.629" y="-15.4" font-family="sans-serif" font-size="14.00" fill="#000000"> &#160;Declarations</text>
<polygon fill="#8dd3c7" stroke="transparent" points="127,-10 127,-30 147,-30 147,-10 127,-10"/>
<text text-anchor="start" x="150.7251" y="-15.4" font-family="sans-serif" font-size="14.00" fill="#000000"> &#160;Module</text>
<polygon fill="#80b1d3" stroke="transparent" points="213,-10 213,-30 233,-30 233,-10 213,-10"/>
<text text-anchor="start" x="236.7812" y="-15.4" font-family="sans-serif" font-size="14.00" fill="#000000"> &#160;Bootstrap</text>
<polygon fill="#fdb462" stroke="transparent" points="310,-10 310,-30 330,-30 330,-10 310,-10"/>
<text text-anchor="start" x="333.6732" y="-15.4" font-family="sans-serif" font-size="14.00" fill="#000000"> &#160;Providers</text>
<polygon fill="#fb8072" stroke="transparent" points="406,-10 406,-30 426,-30 426,-10 406,-10"/>
<text text-anchor="start" x="429.7258" y="-15.4" font-family="sans-serif" font-size="14.00" fill="#000000"> &#160;Exports</text>
<g id="clust1" class="cluster">
<title>cluster_RaFtcCommunicationModule</title>
<polygon fill="none" stroke="#000000" stroke-dasharray="1,5" points="83,-70 83,-195 413,-195 413,-70 83,-70"/>
</g>
<g id="clust6" class="cluster">
<title>cluster_RaFtcCommunicationModule_providers</title>
<polygon fill="none" stroke="#000000" points="91,-78 91,-130 405,-130 405,-78 91,-78"/>
</g>
<!-- FqnService -->
<g id="node1" class="node">
<title>FqnService</title>
<ellipse fill="#fdb462" stroke="#000000" cx="342" cy="-104" rx="55.0343" ry="18"/>
<text text-anchor="middle" x="342" y="-99.8" font-family="Times,serif" font-size="14.00" fill="#000000">FqnService</text>
</g>
<!-- RaFtcCommunicationModule -->
<g id="node3" class="node">
<title>RaFtcCommunicationModule</title>
<polygon fill="#8dd3c7" stroke="#000000" points="339.7077,-187 336.7077,-191 315.7077,-191 312.7077,-187 156.2923,-187 156.2923,-151 339.7077,-151 339.7077,-187"/>
<text text-anchor="middle" x="248" y="-164.8" font-family="Times,serif" font-size="14.00" fill="#000000">RaFtcCommunicationModule</text>
</g>
<!-- FqnService&#45;&gt;RaFtcCommunicationModule -->
<g id="edge1" class="edge">
<title>FqnService&#45;&gt;RaFtcCommunicationModule</title>
<path fill="none" stroke="#000000" d="M313.2933,-119.4041C313.2933,-119.4041 313.2933,-140.9397 313.2933,-140.9397"/>
<polygon fill="#000000" stroke="#000000" points="309.7934,-140.9397 313.2933,-150.9397 316.7934,-140.9398 309.7934,-140.9397"/>
</g>
<!-- OpcQualityService -->
<g id="node2" class="node">
<title>OpcQualityService</title>
<ellipse fill="#fdb462" stroke="#000000" cx="184" cy="-104" rx="85.0889" ry="18"/>
<text text-anchor="middle" x="184" y="-99.8" font-family="Times,serif" font-size="14.00" fill="#000000">OpcQualityService</text>
</g>
<!-- OpcQualityService&#45;&gt;RaFtcCommunicationModule -->
<g id="edge2" class="edge">
<title>OpcQualityService&#45;&gt;RaFtcCommunicationModule</title>
<path fill="none" stroke="#000000" d="M212.7203,-121.078C212.7203,-121.078 212.7203,-140.8993 212.7203,-140.8993"/>
<polygon fill="#000000" stroke="#000000" points="209.2204,-140.8992 212.7203,-150.8993 216.2204,-140.8993 209.2204,-140.8992"/>
</g>
</g>
</svg>
