<?xml version="1.0" encoding="UTF-8" standalone="no"?>
<!DOCTYPE svg PUBLIC "-//W3C//DTD SVG 1.1//EN"
 "http://www.w3.org/Graphics/SVG/1.1/DTD/svg11.dtd">
<!-- Generated by graphviz version 2.40.1 (20161225.0304)
 -->
<!-- Title: dependencies Pages: 1 -->
<svg width="504pt" height="284pt"
 viewBox="0.00 0.00 504.00 284.00" xmlns="http://www.w3.org/2000/svg" xmlns:xlink="http://www.w3.org/1999/xlink">
<g id="graph0" class="graph" transform="scale(1 1) rotate(0) translate(4 280)">
<title>dependencies</title>
<polygon fill="#ffffff" stroke="transparent" points="-4,4 -4,-280 500,-280 500,4 -4,4"/>
<text text-anchor="start" x="227.0091" y="-42.4" font-family="sans-serif" font-weight="bold" font-size="14.00" fill="#000000">Legend</text>
<polygon fill="#ffffb3" stroke="transparent" points="14,-10 14,-30 34,-30 34,-10 14,-10"/>
<text text-anchor="start" x="37.629" y="-15.4" font-family="sans-serif" font-size="14.00" fill="#000000"> &#160;Declarations</text>
<polygon fill="#8dd3c7" stroke="transparent" points="127,-10 127,-30 147,-30 147,-10 127,-10"/>
<text text-anchor="start" x="150.7251" y="-15.4" font-family="sans-serif" font-size="14.00" fill="#000000"> &#160;Module</text>
<polygon fill="#80b1d3" stroke="transparent" points="213,-10 213,-30 233,-30 233,-10 213,-10"/>
<text text-anchor="start" x="236.7812" y="-15.4" font-family="sans-serif" font-size="14.00" fill="#000000"> &#160;Bootstrap</text>
<polygon fill="#fdb462" stroke="transparent" points="310,-10 310,-30 330,-30 330,-10 310,-10"/>
<text text-anchor="start" x="333.6732" y="-15.4" font-family="sans-serif" font-size="14.00" fill="#000000"> &#160;Providers</text>
<polygon fill="#fb8072" stroke="transparent" points="406,-10 406,-30 426,-30 426,-10 406,-10"/>
<text text-anchor="start" x="429.7258" y="-15.4" font-family="sans-serif" font-size="14.00" fill="#000000"> &#160;Exports</text>
<g id="clust1" class="cluster">
<title>cluster_RaFtcStringValuePickerModule</title>
<polygon fill="none" stroke="#000000" stroke-dasharray="1,5" points="30,-70 30,-268 466,-268 466,-70 30,-70"/>
</g>
<g id="clust2" class="cluster">
<title>cluster_RaFtcStringValuePickerModule_declarations</title>
<polygon fill="none" stroke="#000000" points="42,-78 42,-130 455,-130 455,-78 42,-78"/>
</g>
<g id="clust6" class="cluster">
<title>cluster_RaFtcStringValuePickerModule_exports</title>
<polygon fill="none" stroke="#000000" points="38,-208 38,-260 458,-260 458,-208 38,-208"/>
</g>
<!-- StringValuePickerComponent -->
<g id="node1" class="node">
<title>StringValuePickerComponent</title>
<polygon fill="#ffffb3" stroke="#000000" points="447.2464,-122 262.7536,-122 262.7536,-86 447.2464,-86 447.2464,-122"/>
<text text-anchor="middle" x="355" y="-99.8" font-family="Times,serif" font-size="14.00" fill="#000000">StringValuePickerComponent</text>
</g>
<!-- RaFtcStringValuePickerModule -->
<g id="node3" class="node">
<title>RaFtcStringValuePickerModule</title>
<polygon fill="#8dd3c7" stroke="#000000" points="246.403,-187 243.403,-191 222.403,-191 219.403,-187 49.597,-187 49.597,-151 246.403,-151 246.403,-187"/>
<text text-anchor="middle" x="148" y="-164.8" font-family="Times,serif" font-size="14.00" fill="#000000">RaFtcStringValuePickerModule</text>
</g>
<!-- StringValuePickerComponent&#45;&gt;RaFtcStringValuePickerModule -->
<g id="edge1" class="edge">
<title>StringValuePickerComponent&#45;&gt;RaFtcStringValuePickerModule</title>
<path fill="none" stroke="#000000" d="M385.791,-122.0225C385.791,-139.3734 385.791,-163 385.791,-163 385.791,-163 256.4352,-163 256.4352,-163"/>
<polygon fill="#000000" stroke="#000000" points="256.4352,-159.5001 246.4352,-163 256.4352,-166.5001 256.4352,-159.5001"/>
</g>
<!-- ValuePickerContentComponent -->
<g id="node2" class="node">
<title>ValuePickerContentComponent</title>
<polygon fill="#ffffb3" stroke="#000000" points="244.3543,-122 49.6457,-122 49.6457,-86 244.3543,-86 244.3543,-122"/>
<text text-anchor="middle" x="147" y="-99.8" font-family="Times,serif" font-size="14.00" fill="#000000">ValuePickerContentComponent</text>
</g>
<!-- ValuePickerContentComponent&#45;&gt;RaFtcStringValuePickerModule -->
<g id="edge2" class="edge">
<title>ValuePickerContentComponent&#45;&gt;RaFtcStringValuePickerModule</title>
<path fill="none" stroke="#000000" d="M147.1129,-122.1061C147.1129,-122.1061 147.1129,-140.991 147.1129,-140.991"/>
<polygon fill="#000000" stroke="#000000" points="143.613,-140.9909 147.1129,-150.991 150.613,-140.991 143.613,-140.9909"/>
</g>
<!-- StringValuePickerComponent  -->
<g id="node4" class="node">
<title>StringValuePickerComponent </title>
<polygon fill="#fb8072" stroke="#000000" points="450.2464,-252 261.7536,-252 261.7536,-216 450.2464,-216 450.2464,-252"/>
<text text-anchor="middle" x="356" y="-229.8" font-family="Times,serif" font-size="14.00" fill="#000000">StringValuePickerComponent </text>
</g>
<!-- RaFtcStringValuePickerModule&#45;&gt;StringValuePickerComponent  -->
<g id="edge3" class="edge">
<title>RaFtcStringValuePickerModule&#45;&gt;StringValuePickerComponent </title>
<path fill="none" stroke="#000000" stroke-dasharray="5,2" d="M246.4082,-175C286.771,-175 324.209,-175 324.209,-175 324.209,-175 324.209,-205.9775 324.209,-205.9775"/>
<polygon fill="#000000" stroke="#000000" points="320.7091,-205.9774 324.209,-215.9775 327.7091,-205.9775 320.7091,-205.9774"/>
</g>
<!-- ValuePickerContentComponent  -->
<g id="node5" class="node">
<title>ValuePickerContentComponent </title>
<polygon fill="#fb8072" stroke="#000000" points="244.3545,-252 45.6455,-252 45.6455,-216 244.3545,-216 244.3545,-252"/>
<text text-anchor="middle" x="145" y="-229.8" font-family="Times,serif" font-size="14.00" fill="#000000">ValuePickerContentComponent </text>
</g>
<!-- RaFtcStringValuePickerModule&#45;&gt;ValuePickerContentComponent  -->
<g id="edge4" class="edge">
<title>RaFtcStringValuePickerModule&#45;&gt;ValuePickerContentComponent </title>
<path fill="none" stroke="#000000" stroke-dasharray="5,2" d="M146.9879,-187.1061C146.9879,-187.1061 146.9879,-205.991 146.9879,-205.991"/>
<polygon fill="#000000" stroke="#000000" points="143.488,-205.9909 146.9879,-215.991 150.488,-205.991 143.488,-205.9909"/>
</g>
</g>
</svg>
