<?xml version="1.0" encoding="UTF-8" standalone="no"?>
<!DOCTYPE svg PUBLIC "-//W3C//DTD SVG 1.1//EN"
 "http://www.w3.org/Graphics/SVG/1.1/DTD/svg11.dtd">
<!-- Generated by graphviz version 2.40.1 (20161225.0304)
 -->
<!-- Title: dependencies Pages: 1 -->
<svg width="504pt" height="284pt"
 viewBox="0.00 0.00 504.00 284.00" xmlns="http://www.w3.org/2000/svg" xmlns:xlink="http://www.w3.org/1999/xlink">
<g id="graph0" class="graph" transform="scale(1 1) rotate(0) translate(4 280)">
<title>dependencies</title>
<polygon fill="#ffffff" stroke="transparent" points="-4,4 -4,-280 500,-280 500,4 -4,4"/>
<text text-anchor="start" x="227.0091" y="-42.4" font-family="sans-serif" font-weight="bold" font-size="14.00" fill="#000000">Legend</text>
<polygon fill="#ffffb3" stroke="transparent" points="14,-10 14,-30 34,-30 34,-10 14,-10"/>
<text text-anchor="start" x="37.629" y="-15.4" font-family="sans-serif" font-size="14.00" fill="#000000"> &#160;Declarations</text>
<polygon fill="#8dd3c7" stroke="transparent" points="127,-10 127,-30 147,-30 147,-10 127,-10"/>
<text text-anchor="start" x="150.7251" y="-15.4" font-family="sans-serif" font-size="14.00" fill="#000000"> &#160;Module</text>
<polygon fill="#80b1d3" stroke="transparent" points="213,-10 213,-30 233,-30 233,-10 213,-10"/>
<text text-anchor="start" x="236.7812" y="-15.4" font-family="sans-serif" font-size="14.00" fill="#000000"> &#160;Bootstrap</text>
<polygon fill="#fdb462" stroke="transparent" points="310,-10 310,-30 330,-30 330,-10 310,-10"/>
<text text-anchor="start" x="333.6732" y="-15.4" font-family="sans-serif" font-size="14.00" fill="#000000"> &#160;Providers</text>
<polygon fill="#fb8072" stroke="transparent" points="406,-10 406,-30 426,-30 426,-10 406,-10"/>
<text text-anchor="start" x="429.7258" y="-15.4" font-family="sans-serif" font-size="14.00" fill="#000000"> &#160;Exports</text>
<g id="clust1" class="cluster">
<title>cluster_RaFtcMessageDialogModule</title>
<polygon fill="none" stroke="#000000" stroke-dasharray="1,5" points="36,-70 36,-268 460,-268 460,-70 36,-70"/>
</g>
<g id="clust2" class="cluster">
<title>cluster_RaFtcMessageDialogModule_declarations</title>
<polygon fill="none" stroke="#000000" points="268,-78 268,-130 452,-130 452,-78 268,-78"/>
</g>
<g id="clust5" class="cluster">
<title>cluster_RaFtcMessageDialogModule_exports</title>
<polygon fill="none" stroke="#000000" points="161,-208 161,-260 349,-260 349,-208 161,-208"/>
</g>
<g id="clust7" class="cluster">
<title>cluster_RaFtcMessageDialogModule_providers</title>
<polygon fill="none" stroke="#000000" points="44,-78 44,-130 260,-130 260,-78 44,-78"/>
</g>
<!-- DialogMessageComponent -->
<g id="node1" class="node">
<title>DialogMessageComponent</title>
<polygon fill="#ffffb3" stroke="#000000" points="444.4129,-122 275.5871,-122 275.5871,-86 444.4129,-86 444.4129,-122"/>
<text text-anchor="middle" x="360" y="-99.8" font-family="Times,serif" font-size="14.00" fill="#000000">DialogMessageComponent</text>
</g>
<!-- RaFtcMessageDialogModule -->
<g id="node2" class="node">
<title>RaFtcMessageDialogModule</title>
<polygon fill="#8dd3c7" stroke="#000000" points="345.0688,-187 342.0688,-191 321.0688,-191 318.0688,-187 164.9312,-187 164.9312,-151 345.0688,-151 345.0688,-187"/>
<text text-anchor="middle" x="255" y="-164.8" font-family="Times,serif" font-size="14.00" fill="#000000">RaFtcMessageDialogModule</text>
</g>
<!-- DialogMessageComponent&#45;&gt;RaFtcMessageDialogModule -->
<g id="edge1" class="edge">
<title>DialogMessageComponent&#45;&gt;RaFtcMessageDialogModule</title>
<path fill="none" stroke="#000000" d="M310.4141,-122.1061C310.4141,-122.1061 310.4141,-140.991 310.4141,-140.991"/>
<polygon fill="#000000" stroke="#000000" points="306.9142,-140.9909 310.4141,-150.991 313.9142,-140.991 306.9142,-140.9909"/>
</g>
<!-- DialogMessageComponent  -->
<g id="node3" class="node">
<title>DialogMessageComponent </title>
<polygon fill="#fb8072" stroke="#000000" points="340.9124,-252 169.0876,-252 169.0876,-216 340.9124,-216 340.9124,-252"/>
<text text-anchor="middle" x="255" y="-229.8" font-family="Times,serif" font-size="14.00" fill="#000000">DialogMessageComponent </text>
</g>
<!-- RaFtcMessageDialogModule&#45;&gt;DialogMessageComponent  -->
<g id="edge2" class="edge">
<title>RaFtcMessageDialogModule&#45;&gt;DialogMessageComponent </title>
<path fill="none" stroke="#000000" stroke-dasharray="5,2" d="M255,-187.1061C255,-187.1061 255,-205.991 255,-205.991"/>
<polygon fill="#000000" stroke="#000000" points="251.5001,-205.9909 255,-215.991 258.5001,-205.991 251.5001,-205.9909"/>
</g>
<!-- MessageDialogService -->
<g id="node4" class="node">
<title>MessageDialogService</title>
<ellipse fill="#fdb462" stroke="#000000" cx="152" cy="-104" rx="100.1162" ry="18"/>
<text text-anchor="middle" x="152" y="-99.8" font-family="Times,serif" font-size="14.00" fill="#000000">MessageDialogService</text>
</g>
<!-- MessageDialogService&#45;&gt;RaFtcMessageDialogModule -->
<g id="edge3" class="edge">
<title>MessageDialogService&#45;&gt;RaFtcMessageDialogModule</title>
<path fill="none" stroke="#000000" d="M208.5118,-119.0757C208.5118,-119.0757 208.5118,-140.7642 208.5118,-140.7642"/>
<polygon fill="#000000" stroke="#000000" points="205.0119,-140.7642 208.5118,-150.7642 212.0119,-140.7642 205.0119,-140.7642"/>
</g>
</g>
</svg>
