<?xml version="1.0" encoding="UTF-8" standalone="no"?>
<!DOCTYPE svg PUBLIC "-//W3C//DTD SVG 1.1//EN"
 "http://www.w3.org/Graphics/SVG/1.1/DTD/svg11.dtd">
<!-- Generated by graphviz version 2.40.1 (20161225.0304)
 -->
<!-- Title: dependencies Pages: 1 -->
<svg width="1742pt" height="284pt"
 viewBox="0.00 0.00 1742.00 284.00" xmlns="http://www.w3.org/2000/svg" xmlns:xlink="http://www.w3.org/1999/xlink">
<g id="graph0" class="graph" transform="scale(1 1) rotate(0) translate(4 280)">
<title>dependencies</title>
<polygon fill="#ffffff" stroke="transparent" points="-4,4 -4,-280 1738,-280 1738,4 -4,4"/>
<text text-anchor="start" x="846.0091" y="-42.4" font-family="sans-serif" font-weight="bold" font-size="14.00" fill="#000000">Legend</text>
<polygon fill="#ffffb3" stroke="transparent" points="633,-10 633,-30 653,-30 653,-10 633,-10"/>
<text text-anchor="start" x="656.629" y="-15.4" font-family="sans-serif" font-size="14.00" fill="#000000"> &#160;Declarations</text>
<polygon fill="#8dd3c7" stroke="transparent" points="746,-10 746,-30 766,-30 766,-10 746,-10"/>
<text text-anchor="start" x="769.7251" y="-15.4" font-family="sans-serif" font-size="14.00" fill="#000000"> &#160;Module</text>
<polygon fill="#80b1d3" stroke="transparent" points="832,-10 832,-30 852,-30 852,-10 832,-10"/>
<text text-anchor="start" x="855.7812" y="-15.4" font-family="sans-serif" font-size="14.00" fill="#000000"> &#160;Bootstrap</text>
<polygon fill="#fdb462" stroke="transparent" points="929,-10 929,-30 949,-30 949,-10 929,-10"/>
<text text-anchor="start" x="952.6732" y="-15.4" font-family="sans-serif" font-size="14.00" fill="#000000"> &#160;Providers</text>
<polygon fill="#fb8072" stroke="transparent" points="1025,-10 1025,-30 1045,-30 1045,-10 1025,-10"/>
<text text-anchor="start" x="1048.7258" y="-15.4" font-family="sans-serif" font-size="14.00" fill="#000000"> &#160;Exports</text>
<g id="clust1" class="cluster">
<title>cluster_RaFtcColorPickerModule</title>
<polygon fill="none" stroke="#000000" stroke-dasharray="1,5" points="8,-70 8,-268 1726,-268 1726,-70 8,-70"/>
</g>
<g id="clust2" class="cluster">
<title>cluster_RaFtcColorPickerModule_declarations</title>
<polygon fill="none" stroke="#000000" points="214,-78 214,-130 1718,-130 1718,-78 214,-78"/>
</g>
<g id="clust10" class="cluster">
<title>cluster_RaFtcColorPickerModule_exports</title>
<polygon fill="none" stroke="#000000" points="106,-208 106,-260 1629,-260 1629,-208 106,-208"/>
</g>
<g id="clust12" class="cluster">
<title>cluster_RaFtcColorPickerModule_providers</title>
<polygon fill="none" stroke="#000000" points="16,-78 16,-130 206,-130 206,-78 16,-78"/>
</g>
<!-- PaletteColorPickerComponent -->
<g id="node1" class="node">
<title>PaletteColorPickerComponent</title>
<polygon fill="#ffffb3" stroke="#000000" points="1709.5814,-122 1522.4186,-122 1522.4186,-86 1709.5814,-86 1709.5814,-122"/>
<text text-anchor="middle" x="1616" y="-99.8" font-family="Times,serif" font-size="14.00" fill="#000000">PaletteColorPickerComponent</text>
</g>
<!-- RaFtcColorPickerModule -->
<g id="node7" class="node">
<title>RaFtcColorPickerModule</title>
<polygon fill="#8dd3c7" stroke="#000000" points="935.14,-187 932.14,-191 911.14,-191 908.14,-187 774.86,-187 774.86,-151 935.14,-151 935.14,-187"/>
<text text-anchor="middle" x="855" y="-164.8" font-family="Times,serif" font-size="14.00" fill="#000000">RaFtcColorPickerModule</text>
</g>
<!-- PaletteColorPickerComponent&#45;&gt;RaFtcColorPickerModule -->
<g id="edge1" class="edge">
<title>PaletteColorPickerComponent&#45;&gt;RaFtcColorPickerModule</title>
<path fill="none" stroke="#000000" d="M1571.875,-122.1061C1571.875,-141.3391 1571.875,-169 1571.875,-169 1571.875,-169 945.148,-169 945.148,-169"/>
<polygon fill="#000000" stroke="#000000" points="945.148,-165.5001 935.148,-169 945.148,-172.5001 945.148,-165.5001"/>
</g>
<!-- PaletteColorPickerPopupContentComponent -->
<g id="node2" class="node">
<title>PaletteColorPickerPopupContentComponent</title>
<polygon fill="#ffffb3" stroke="#000000" points="1504.6965,-122 1237.3035,-122 1237.3035,-86 1504.6965,-86 1504.6965,-122"/>
<text text-anchor="middle" x="1371" y="-99.8" font-family="Times,serif" font-size="14.00" fill="#000000">PaletteColorPickerPopupContentComponent</text>
</g>
<!-- PaletteColorPickerPopupContentComponent&#45;&gt;RaFtcColorPickerModule -->
<g id="edge2" class="edge">
<title>PaletteColorPickerPopupContentComponent&#45;&gt;RaFtcColorPickerModule</title>
<path fill="none" stroke="#000000" d="M1324.875,-122.0225C1324.875,-139.3734 1324.875,-163 1324.875,-163 1324.875,-163 945.2405,-163 945.2405,-163"/>
<polygon fill="#000000" stroke="#000000" points="945.2405,-159.5001 935.2405,-163 945.2405,-166.5001 945.2405,-159.5001"/>
</g>
<!-- SimplePaletteColorPickerComponent -->
<g id="node3" class="node">
<title>SimplePaletteColorPickerComponent</title>
<polygon fill="#ffffb3" stroke="#000000" points="1219.2505,-122 992.7495,-122 992.7495,-86 1219.2505,-86 1219.2505,-122"/>
<text text-anchor="middle" x="1106" y="-99.8" font-family="Times,serif" font-size="14.00" fill="#000000">SimplePaletteColorPickerComponent</text>
</g>
<!-- SimplePaletteColorPickerComponent&#45;&gt;RaFtcColorPickerModule -->
<g id="edge3" class="edge">
<title>SimplePaletteColorPickerComponent&#45;&gt;RaFtcColorPickerModule</title>
<path fill="none" stroke="#000000" d="M1058.375,-122.2396C1058.375,-137.5706 1058.375,-157 1058.375,-157 1058.375,-157 945.3792,-157 945.3792,-157"/>
<polygon fill="#000000" stroke="#000000" points="945.3792,-153.5001 935.3792,-157 945.3792,-160.5001 945.3792,-153.5001"/>
</g>
<!-- SimpleStandardColorPickerComponent -->
<g id="node4" class="node">
<title>SimpleStandardColorPickerComponent</title>
<polygon fill="#ffffb3" stroke="#000000" points="974.4156,-122 735.5844,-122 735.5844,-86 974.4156,-86 974.4156,-122"/>
<text text-anchor="middle" x="855" y="-99.8" font-family="Times,serif" font-size="14.00" fill="#000000">SimpleStandardColorPickerComponent</text>
</g>
<!-- SimpleStandardColorPickerComponent&#45;&gt;RaFtcColorPickerModule -->
<g id="edge4" class="edge">
<title>SimpleStandardColorPickerComponent&#45;&gt;RaFtcColorPickerModule</title>
<path fill="none" stroke="#000000" d="M855,-122.1061C855,-122.1061 855,-140.991 855,-140.991"/>
<polygon fill="#000000" stroke="#000000" points="851.5001,-140.9909 855,-150.991 858.5001,-140.991 851.5001,-140.9909"/>
</g>
<!-- StandardColorPickerComponent -->
<g id="node5" class="node">
<title>StandardColorPickerComponent</title>
<polygon fill="#ffffb3" stroke="#000000" points="717.2464,-122 518.7536,-122 518.7536,-86 717.2464,-86 717.2464,-122"/>
<text text-anchor="middle" x="618" y="-99.8" font-family="Times,serif" font-size="14.00" fill="#000000">StandardColorPickerComponent</text>
</g>
<!-- StandardColorPickerComponent&#45;&gt;RaFtcColorPickerModule -->
<g id="edge5" class="edge">
<title>StandardColorPickerComponent&#45;&gt;RaFtcColorPickerModule</title>
<path fill="none" stroke="#000000" d="M675.7078,-122.2396C675.7078,-137.5706 675.7078,-157 675.7078,-157 675.7078,-157 764.7932,-157 764.7932,-157"/>
<polygon fill="#000000" stroke="#000000" points="764.7932,-160.5001 774.7932,-157 764.7931,-153.5001 764.7932,-160.5001"/>
</g>
<!-- StandardColorPickerPopupContentComponent -->
<g id="node6" class="node">
<title>StandardColorPickerPopupContentComponent</title>
<polygon fill="#ffffb3" stroke="#000000" points="500.3612,-122 221.6388,-122 221.6388,-86 500.3612,-86 500.3612,-122"/>
<text text-anchor="middle" x="361" y="-99.8" font-family="Times,serif" font-size="14.00" fill="#000000">StandardColorPickerPopupContentComponent</text>
</g>
<!-- StandardColorPickerPopupContentComponent&#45;&gt;RaFtcColorPickerModule -->
<g id="edge6" class="edge">
<title>StandardColorPickerPopupContentComponent&#45;&gt;RaFtcColorPickerModule</title>
<path fill="none" stroke="#000000" d="M457.1538,-122.0225C457.1538,-139.3734 457.1538,-163 457.1538,-163 457.1538,-163 764.4899,-163 764.4899,-163"/>
<polygon fill="#000000" stroke="#000000" points="764.4899,-166.5001 774.4899,-163 764.4898,-159.5001 764.4899,-166.5001"/>
</g>
<!-- PaletteColorPickerComponent  -->
<g id="node8" class="node">
<title>PaletteColorPickerComponent </title>
<polygon fill="#fb8072" stroke="#000000" points="1621.0819,-252 1430.9181,-252 1430.9181,-216 1621.0819,-216 1621.0819,-252"/>
<text text-anchor="middle" x="1526" y="-229.8" font-family="Times,serif" font-size="14.00" fill="#000000">PaletteColorPickerComponent </text>
</g>
<!-- RaFtcColorPickerModule&#45;&gt;PaletteColorPickerComponent  -->
<g id="edge7" class="edge">
<title>RaFtcColorPickerModule&#45;&gt;PaletteColorPickerComponent </title>
<path fill="none" stroke="#000000" stroke-dasharray="5,2" d="M935.4085,-175C1101.6235,-175 1467.6538,-175 1467.6538,-175 1467.6538,-175 1467.6538,-205.9775 1467.6538,-205.9775"/>
<polygon fill="#000000" stroke="#000000" points="1464.1538,-205.9774 1467.6538,-215.9775 1471.1538,-205.9775 1464.1538,-205.9774"/>
</g>
<!-- PaletteColorPickerPopupContentComponent  -->
<g id="node9" class="node">
<title>PaletteColorPickerPopupContentComponent </title>
<polygon fill="#fb8072" stroke="#000000" points="1412.1966,-252 1141.8034,-252 1141.8034,-216 1412.1966,-216 1412.1966,-252"/>
<text text-anchor="middle" x="1277" y="-229.8" font-family="Times,serif" font-size="14.00" fill="#000000">PaletteColorPickerPopupContentComponent </text>
</g>
<!-- RaFtcColorPickerModule&#45;&gt;PaletteColorPickerPopupContentComponent  -->
<g id="edge8" class="edge">
<title>RaFtcColorPickerModule&#45;&gt;PaletteColorPickerPopupContentComponent </title>
<path fill="none" stroke="#000000" stroke-dasharray="5,2" d="M935.464,-181C1031.8579,-181 1180.5135,-181 1180.5135,-181 1180.5135,-181 1180.5135,-205.7604 1180.5135,-205.7604"/>
<polygon fill="#000000" stroke="#000000" points="1177.0136,-205.7604 1180.5135,-215.7604 1184.0136,-205.7604 1177.0136,-205.7604"/>
</g>
<!-- SimplePaletteColorPickerComponent  -->
<g id="node10" class="node">
<title>SimplePaletteColorPickerComponent </title>
<polygon fill="#fb8072" stroke="#000000" points="1124.2505,-252 893.7495,-252 893.7495,-216 1124.2505,-216 1124.2505,-252"/>
<text text-anchor="middle" x="1009" y="-229.8" font-family="Times,serif" font-size="14.00" fill="#000000">SimplePaletteColorPickerComponent </text>
</g>
<!-- RaFtcColorPickerModule&#45;&gt;SimplePaletteColorPickerComponent  -->
<g id="edge9" class="edge">
<title>RaFtcColorPickerModule&#45;&gt;SimplePaletteColorPickerComponent </title>
<path fill="none" stroke="#000000" stroke-dasharray="5,2" d="M914.5973,-187.1061C914.5973,-187.1061 914.5973,-205.991 914.5973,-205.991"/>
<polygon fill="#000000" stroke="#000000" points="911.0974,-205.9909 914.5973,-215.991 918.0974,-205.991 911.0974,-205.9909"/>
</g>
<!-- SimpleStandardColorPickerComponent  -->
<g id="node11" class="node">
<title>SimpleStandardColorPickerComponent </title>
<polygon fill="#fb8072" stroke="#000000" points="875.9152,-252 634.0848,-252 634.0848,-216 875.9152,-216 875.9152,-252"/>
<text text-anchor="middle" x="755" y="-229.8" font-family="Times,serif" font-size="14.00" fill="#000000">SimpleStandardColorPickerComponent </text>
</g>
<!-- RaFtcColorPickerModule&#45;&gt;SimpleStandardColorPickerComponent  -->
<g id="edge10" class="edge">
<title>RaFtcColorPickerModule&#45;&gt;SimpleStandardColorPickerComponent </title>
<path fill="none" stroke="#000000" stroke-dasharray="5,2" d="M825.3189,-187.1061C825.3189,-187.1061 825.3189,-205.991 825.3189,-205.991"/>
<polygon fill="#000000" stroke="#000000" points="821.819,-205.9909 825.3189,-215.991 828.819,-205.991 821.819,-205.9909"/>
</g>
<!-- StandardColorPickerComponent  -->
<g id="node12" class="node">
<title>StandardColorPickerComponent </title>
<polygon fill="#fb8072" stroke="#000000" points="616.2464,-252 413.7536,-252 413.7536,-216 616.2464,-216 616.2464,-252"/>
<text text-anchor="middle" x="515" y="-229.8" font-family="Times,serif" font-size="14.00" fill="#000000">StandardColorPickerComponent </text>
</g>
<!-- RaFtcColorPickerModule&#45;&gt;StandardColorPickerComponent  -->
<g id="edge11" class="edge">
<title>RaFtcColorPickerModule&#45;&gt;StandardColorPickerComponent </title>
<path fill="none" stroke="#000000" stroke-dasharray="5,2" d="M774.4979,-181C689.4083,-181 567.375,-181 567.375,-181 567.375,-181 567.375,-205.7604 567.375,-205.7604"/>
<polygon fill="#000000" stroke="#000000" points="563.8751,-205.7604 567.375,-215.7604 570.8751,-205.7604 563.8751,-205.7604"/>
</g>
<!-- StandardColorPickerPopupContentComponent  -->
<g id="node13" class="node">
<title>StandardColorPickerPopupContentComponent </title>
<polygon fill="#fb8072" stroke="#000000" points="396.3614,-252 113.6386,-252 113.6386,-216 396.3614,-216 396.3614,-252"/>
<text text-anchor="middle" x="255" y="-229.8" font-family="Times,serif" font-size="14.00" fill="#000000">StandardColorPickerPopupContentComponent </text>
</g>
<!-- RaFtcColorPickerModule&#45;&gt;StandardColorPickerPopupContentComponent  -->
<g id="edge12" class="edge">
<title>RaFtcColorPickerModule&#45;&gt;StandardColorPickerPopupContentComponent </title>
<path fill="none" stroke="#000000" stroke-dasharray="5,2" d="M774.7108,-175C622.9078,-175 308.875,-175 308.875,-175 308.875,-175 308.875,-205.9775 308.875,-205.9775"/>
<polygon fill="#000000" stroke="#000000" points="305.3751,-205.9774 308.875,-215.9775 312.3751,-205.9775 305.3751,-205.9774"/>
</g>
<!-- ColorPickerService -->
<g id="node14" class="node">
<title>ColorPickerService</title>
<ellipse fill="#fdb462" stroke="#000000" cx="111" cy="-104" rx="86.8126" ry="18"/>
<text text-anchor="middle" x="111" y="-99.8" font-family="Times,serif" font-size="14.00" fill="#000000">ColorPickerService</text>
</g>
<!-- ColorPickerService&#45;&gt;RaFtcColorPickerModule -->
<g id="edge13" class="edge">
<title>ColorPickerService&#45;&gt;RaFtcColorPickerModule</title>
<path fill="none" stroke="#000000" d="M155.7378,-119.7347C155.7378,-138.9716 155.7378,-169 155.7378,-169 155.7378,-169 764.7857,-169 764.7857,-169"/>
<polygon fill="#000000" stroke="#000000" points="764.7858,-172.5001 774.7857,-169 764.7857,-165.5001 764.7858,-172.5001"/>
</g>
</g>
</svg>
