<?xml version="1.0" standalone="no"?>
<!DOCTYPE svg PUBLIC "-//W3C//DTD SVG 20010904//EN"
 "http://www.w3.org/TR/2001/REC-SVG-20010904/DTD/svg10.dtd">
<svg version="1.0" xmlns="http://www.w3.org/2000/svg"
 width="2048.000000pt" height="2048.000000pt" viewBox="0 0 2048.000000 2048.000000"
 preserveAspectRatio="xMidYMid meet">
<metadata>
Created by potrace 1.11, written by Peter Selinger 2001-2013
</metadata>
<g transform="translate(0.000000,2048.000000) scale(0.100000,-0.100000)"
fill="#000000" stroke="none">
<path d="M8940 19206 c-707 -408 -2234 -1291 -3395 -1961 -1160 -670 -2344
-1353 -2630 -1518 -286 -165 -646 -373 -800 -462 l-280 -162 -3 -4859 -2
-4859 157 -92 c87 -50 651 -376 1253 -723 602 -348 1268 -732 1480 -855 212
-122 678 -391 1035 -597 3621 -2091 4450 -2571 4453 -2579 5 -12 49 -12 54 0
2 5 260 158 573 339 314 181 1227 708 2030 1172 803 463 1618 934 1810 1045
193 111 645 372 1005 580 725 419 1888 1090 2538 1465 l422 244 -2 4859 -3
4859 -410 238 c-225 130 -1418 819 -2650 1530 -1232 711 -2936 1695 -3787
2186 -852 492 -1551 894 -1555 893 -5 0 -586 -334 -1293 -743z m2025 -1182
c380 -218 1457 -840 2395 -1382 938 -541 2217 -1279 2842 -1640 l1138 -657 -3
-4104 -2 -4104 -1530 -883 c-841 -486 -1669 -964 -1840 -1063 -170 -98 -1078
-623 -2018 -1165 -939 -542 -1710 -986 -1712 -986 -4 0 -475 271 -2005 1155
-838 484 -2066 1193 -3525 2035 -841 485 -1540 889 -1552 896 l-23 14 0 4103
0 4102 297 172 c164 94 469 270 678 390 209 121 1314 759 2455 1418 1141 659
2201 1271 2355 1360 154 89 431 249 615 355 184 106 418 241 520 300 164 95
187 106 205 95 11 -7 331 -192 710 -411z"/>
<path d="M9786 16709 c-247 -142 -452 -259 -457 -259 -5 0 -9 -643 -9 -1487 0
-1263 -3 -1504 -15 -1593 -118 -829 -823 -1441 -1658 -1440 -721 1 -1364 467
-1586 1148 -73 224 -74 230 -78 830 -3 306 -8 542 -13 542 -5 0 -211 -116
-457 -259 l-448 -258 -3 -3715 -2 -3714 517 -299 c285 -164 673 -388 863 -498
190 -110 491 -284 670 -387 179 -103 951 -549 1715 -990 765 -442 1397 -805
1405 -807 13 -4 15 552 12 4962 l-2 4966 1402 -3 1403 -3 105 -23 c577 -127
1025 -508 1234 -1049 144 -371 142 -832 -5 -1200 -87 -220 -207 -402 -373
-568 -144 -143 -268 -234 -431 -315 -224 -111 -418 -164 -652 -177 l-113 -6 0
-2549 c0 -1401 3 -2548 6 -2548 3 0 588 336 1300 747 l1294 747 -2 3739 -3
3740 -1020 589 c-561 324 -1373 793 -1805 1042 -1804 1042 -2277 1315 -2310
1334 l-35 20 -449 -259z"/>
</g>
</svg>
