<?xml version="1.0" encoding="UTF-8" standalone="no"?>
<!DOCTYPE svg PUBLIC "-//W3C//DTD SVG 1.1//EN"
 "http://www.w3.org/Graphics/SVG/1.1/DTD/svg11.dtd">
<!-- Generated by graphviz version 2.40.1 (20161225.0304)
 -->
<!-- Title: dependencies Pages: 1 -->
<svg width="874pt" height="284pt"
 viewBox="0.00 0.00 874.00 284.00" xmlns="http://www.w3.org/2000/svg" xmlns:xlink="http://www.w3.org/1999/xlink">
<g id="graph0" class="graph" transform="scale(1 1) rotate(0) translate(4 280)">
<title>dependencies</title>
<polygon fill="#ffffff" stroke="transparent" points="-4,4 -4,-280 870,-280 870,4 -4,4"/>
<text text-anchor="start" x="412.0091" y="-42.4" font-family="sans-serif" font-weight="bold" font-size="14.00" fill="#000000">Legend</text>
<polygon fill="#ffffb3" stroke="transparent" points="199,-10 199,-30 219,-30 219,-10 199,-10"/>
<text text-anchor="start" x="222.629" y="-15.4" font-family="sans-serif" font-size="14.00" fill="#000000"> &#160;Declarations</text>
<polygon fill="#8dd3c7" stroke="transparent" points="312,-10 312,-30 332,-30 332,-10 312,-10"/>
<text text-anchor="start" x="335.7251" y="-15.4" font-family="sans-serif" font-size="14.00" fill="#000000"> &#160;Module</text>
<polygon fill="#80b1d3" stroke="transparent" points="398,-10 398,-30 418,-30 418,-10 398,-10"/>
<text text-anchor="start" x="421.7812" y="-15.4" font-family="sans-serif" font-size="14.00" fill="#000000"> &#160;Bootstrap</text>
<polygon fill="#fdb462" stroke="transparent" points="495,-10 495,-30 515,-30 515,-10 495,-10"/>
<text text-anchor="start" x="518.6732" y="-15.4" font-family="sans-serif" font-size="14.00" fill="#000000"> &#160;Providers</text>
<polygon fill="#fb8072" stroke="transparent" points="591,-10 591,-30 611,-30 611,-10 591,-10"/>
<text text-anchor="start" x="614.7258" y="-15.4" font-family="sans-serif" font-size="14.00" fill="#000000"> &#160;Exports</text>
<g id="clust1" class="cluster">
<title>cluster_RaFtcIconPickerModule</title>
<polygon fill="none" stroke="#000000" stroke-dasharray="1,5" points="8,-70 8,-268 858,-268 858,-70 8,-70"/>
</g>
<g id="clust2" class="cluster">
<title>cluster_RaFtcIconPickerModule_declarations</title>
<polygon fill="none" stroke="#000000" points="252,-78 252,-130 850,-130 850,-78 252,-78"/>
</g>
<g id="clust7" class="cluster">
<title>cluster_RaFtcIconPickerModule_exports</title>
<polygon fill="none" stroke="#000000" points="134,-208 134,-260 743,-260 743,-208 134,-208"/>
</g>
<g id="clust9" class="cluster">
<title>cluster_RaFtcIconPickerModule_providers</title>
<polygon fill="none" stroke="#000000" points="16,-78 16,-130 244,-130 244,-78 16,-78"/>
</g>
<!-- IconPickerComponent -->
<g id="node1" class="node">
<title>IconPickerComponent</title>
<polygon fill="#ffffb3" stroke="#000000" points="841.9706,-122 700.0294,-122 700.0294,-86 841.9706,-86 841.9706,-122"/>
<text text-anchor="middle" x="771" y="-99.8" font-family="Times,serif" font-size="14.00" fill="#000000">IconPickerComponent</text>
</g>
<!-- RaFtcIconPickerModule -->
<g id="node4" class="node">
<title>RaFtcIconPickerModule</title>
<polygon fill="#8dd3c7" stroke="#000000" points="534.6275,-187 531.6275,-191 510.6275,-191 507.6275,-187 381.3725,-187 381.3725,-151 534.6275,-151 534.6275,-187"/>
<text text-anchor="middle" x="458" y="-164.8" font-family="Times,serif" font-size="14.00" fill="#000000">RaFtcIconPickerModule</text>
</g>
<!-- IconPickerComponent&#45;&gt;RaFtcIconPickerModule -->
<g id="edge1" class="edge">
<title>IconPickerComponent&#45;&gt;RaFtcIconPickerModule</title>
<path fill="none" stroke="#000000" d="M717.375,-122.0225C717.375,-139.3734 717.375,-163 717.375,-163 717.375,-163 544.7683,-163 544.7683,-163"/>
<polygon fill="#000000" stroke="#000000" points="544.7683,-159.5001 534.7683,-163 544.7682,-166.5001 544.7683,-159.5001"/>
</g>
<!-- IconPickerPopupContentComponent -->
<g id="node2" class="node">
<title>IconPickerPopupContentComponent</title>
<polygon fill="#ffffb3" stroke="#000000" points="682.0856,-122 459.9144,-122 459.9144,-86 682.0856,-86 682.0856,-122"/>
<text text-anchor="middle" x="571" y="-99.8" font-family="Times,serif" font-size="14.00" fill="#000000">IconPickerPopupContentComponent</text>
</g>
<!-- IconPickerPopupContentComponent&#45;&gt;RaFtcIconPickerModule -->
<g id="edge2" class="edge">
<title>IconPickerPopupContentComponent&#45;&gt;RaFtcIconPickerModule</title>
<path fill="none" stroke="#000000" d="M497.3854,-122.1061C497.3854,-122.1061 497.3854,-140.991 497.3854,-140.991"/>
<polygon fill="#000000" stroke="#000000" points="493.8854,-140.9909 497.3854,-150.991 500.8854,-140.991 493.8854,-140.9909"/>
</g>
<!-- SimpleIconPickerComponent -->
<g id="node3" class="node">
<title>SimpleIconPickerComponent</title>
<polygon fill="#ffffb3" stroke="#000000" points="441.64,-122 260.36,-122 260.36,-86 441.64,-86 441.64,-122"/>
<text text-anchor="middle" x="351" y="-99.8" font-family="Times,serif" font-size="14.00" fill="#000000">SimpleIconPickerComponent</text>
</g>
<!-- SimpleIconPickerComponent&#45;&gt;RaFtcIconPickerModule -->
<g id="edge3" class="edge">
<title>SimpleIconPickerComponent&#45;&gt;RaFtcIconPickerModule</title>
<path fill="none" stroke="#000000" d="M411.5032,-122.1061C411.5032,-122.1061 411.5032,-140.991 411.5032,-140.991"/>
<polygon fill="#000000" stroke="#000000" points="408.0032,-140.9909 411.5032,-150.991 415.0032,-140.991 408.0032,-140.9909"/>
</g>
<!-- IconPickerComponent  -->
<g id="node5" class="node">
<title>IconPickerComponent </title>
<polygon fill="#fb8072" stroke="#000000" points="734.9714,-252 589.0286,-252 589.0286,-216 734.9714,-216 734.9714,-252"/>
<text text-anchor="middle" x="662" y="-229.8" font-family="Times,serif" font-size="14.00" fill="#000000">IconPickerComponent </text>
</g>
<!-- RaFtcIconPickerModule&#45;&gt;IconPickerComponent  -->
<g id="edge4" class="edge">
<title>RaFtcIconPickerModule&#45;&gt;IconPickerComponent </title>
<path fill="none" stroke="#000000" stroke-dasharray="5,2" d="M534.6302,-175C582.712,-175 635.6538,-175 635.6538,-175 635.6538,-175 635.6538,-205.9775 635.6538,-205.9775"/>
<polygon fill="#000000" stroke="#000000" points="632.1538,-205.9774 635.6538,-215.9775 639.1538,-205.9775 632.1538,-205.9774"/>
</g>
<!-- IconPickerPopupContentComponent  -->
<g id="node6" class="node">
<title>IconPickerPopupContentComponent </title>
<polygon fill="#fb8072" stroke="#000000" points="570.586,-252 345.414,-252 345.414,-216 570.586,-216 570.586,-252"/>
<text text-anchor="middle" x="458" y="-229.8" font-family="Times,serif" font-size="14.00" fill="#000000">IconPickerPopupContentComponent </text>
</g>
<!-- RaFtcIconPickerModule&#45;&gt;IconPickerPopupContentComponent  -->
<g id="edge5" class="edge">
<title>RaFtcIconPickerModule&#45;&gt;IconPickerPopupContentComponent </title>
<path fill="none" stroke="#000000" stroke-dasharray="5,2" d="M458,-187.1061C458,-187.1061 458,-205.991 458,-205.991"/>
<polygon fill="#000000" stroke="#000000" points="454.5001,-205.9909 458,-215.991 461.5001,-205.991 454.5001,-205.9909"/>
</g>
<!-- SimpleIconPickerComponent  -->
<g id="node7" class="node">
<title>SimpleIconPickerComponent </title>
<polygon fill="#fb8072" stroke="#000000" points="327.6397,-252 142.3603,-252 142.3603,-216 327.6397,-216 327.6397,-252"/>
<text text-anchor="middle" x="235" y="-229.8" font-family="Times,serif" font-size="14.00" fill="#000000">SimpleIconPickerComponent </text>
</g>
<!-- RaFtcIconPickerModule&#45;&gt;SimpleIconPickerComponent  -->
<g id="edge6" class="edge">
<title>RaFtcIconPickerModule&#45;&gt;SimpleIconPickerComponent </title>
<path fill="none" stroke="#000000" stroke-dasharray="5,2" d="M381.2234,-175C338.5081,-175 293.875,-175 293.875,-175 293.875,-175 293.875,-205.9775 293.875,-205.9775"/>
<polygon fill="#000000" stroke="#000000" points="290.3751,-205.9774 293.875,-215.9775 297.3751,-205.9775 290.3751,-205.9774"/>
</g>
<!-- FontsHttpLoaderService -->
<g id="node8" class="node">
<title>FontsHttpLoaderService</title>
<ellipse fill="#fdb462" stroke="#000000" cx="130" cy="-104" rx="105.9363" ry="18"/>
<text text-anchor="middle" x="130" y="-99.8" font-family="Times,serif" font-size="14.00" fill="#000000">FontsHttpLoaderService</text>
</g>
<!-- FontsHttpLoaderService&#45;&gt;RaFtcIconPickerModule -->
<g id="edge7" class="edge">
<title>FontsHttpLoaderService&#45;&gt;RaFtcIconPickerModule</title>
<path fill="none" stroke="#000000" d="M189.1992,-119.194C189.1992,-136.6752 189.1992,-163 189.1992,-163 189.1992,-163 371.3322,-163 371.3322,-163"/>
<polygon fill="#000000" stroke="#000000" points="371.3322,-166.5001 381.3322,-163 371.3322,-159.5001 371.3322,-166.5001"/>
</g>
</g>
</svg>
