<?xml version="1.0" encoding="UTF-8" standalone="no"?>
<!DOCTYPE svg PUBLIC "-//W3C//DTD SVG 1.1//EN"
 "http://www.w3.org/Graphics/SVG/1.1/DTD/svg11.dtd">
<!-- Generated by graphviz version 2.40.1 (20161225.0304)
 -->
<!-- Title: dependencies Pages: 1 -->
<svg width="504pt" height="284pt"
 viewBox="0.00 0.00 504.00 284.00" xmlns="http://www.w3.org/2000/svg" xmlns:xlink="http://www.w3.org/1999/xlink">
<g id="graph0" class="graph" transform="scale(1 1) rotate(0) translate(4 280)">
<title>dependencies</title>
<polygon fill="#ffffff" stroke="transparent" points="-4,4 -4,-280 500,-280 500,4 -4,4"/>
<text text-anchor="start" x="227.0091" y="-42.4" font-family="sans-serif" font-weight="bold" font-size="14.00" fill="#000000">Legend</text>
<polygon fill="#ffffb3" stroke="transparent" points="14,-10 14,-30 34,-30 34,-10 14,-10"/>
<text text-anchor="start" x="37.629" y="-15.4" font-family="sans-serif" font-size="14.00" fill="#000000"> &#160;Declarations</text>
<polygon fill="#8dd3c7" stroke="transparent" points="127,-10 127,-30 147,-30 147,-10 127,-10"/>
<text text-anchor="start" x="150.7251" y="-15.4" font-family="sans-serif" font-size="14.00" fill="#000000"> &#160;Module</text>
<polygon fill="#80b1d3" stroke="transparent" points="213,-10 213,-30 233,-30 233,-10 213,-10"/>
<text text-anchor="start" x="236.7812" y="-15.4" font-family="sans-serif" font-size="14.00" fill="#000000"> &#160;Bootstrap</text>
<polygon fill="#fdb462" stroke="transparent" points="310,-10 310,-30 330,-30 330,-10 310,-10"/>
<text text-anchor="start" x="333.6732" y="-15.4" font-family="sans-serif" font-size="14.00" fill="#000000"> &#160;Providers</text>
<polygon fill="#fb8072" stroke="transparent" points="406,-10 406,-30 426,-30 426,-10 406,-10"/>
<text text-anchor="start" x="429.7258" y="-15.4" font-family="sans-serif" font-size="14.00" fill="#000000"> &#160;Exports</text>
<g id="clust1" class="cluster">
<title>cluster_RaFtcExpansionToolPanelModule</title>
<polygon fill="none" stroke="#000000" stroke-dasharray="1,5" points="45,-70 45,-268 451,-268 451,-70 45,-70"/>
</g>
<g id="clust2" class="cluster">
<title>cluster_RaFtcExpansionToolPanelModule_declarations</title>
<polygon fill="none" stroke="#000000" points="229,-78 229,-130 443,-130 443,-78 229,-78"/>
</g>
<g id="clust4" class="cluster">
<title>cluster_RaFtcExpansionToolPanelModule_imports</title>
<polygon fill="none" stroke="#000000" points="53,-78 53,-130 221,-130 221,-78 53,-78"/>
</g>
<g id="clust5" class="cluster">
<title>cluster_RaFtcExpansionToolPanelModule_exports</title>
<polygon fill="none" stroke="#000000" points="139,-208 139,-260 357,-260 357,-208 139,-208"/>
</g>
<!-- ExpansionToolPanelComponent -->
<g id="node1" class="node">
<title>ExpansionToolPanelComponent</title>
<polygon fill="#ffffb3" stroke="#000000" points="434.9804,-122 237.0196,-122 237.0196,-86 434.9804,-86 434.9804,-122"/>
<text text-anchor="middle" x="336" y="-99.8" font-family="Times,serif" font-size="14.00" fill="#000000">ExpansionToolPanelComponent</text>
</g>
<!-- RaFtcExpansionToolPanelModule -->
<g id="node2" class="node">
<title>RaFtcExpansionToolPanelModule</title>
<polygon fill="#8dd3c7" stroke="#000000" points="352.6371,-187 349.6371,-191 328.6371,-191 325.6371,-187 143.3629,-187 143.3629,-151 352.6371,-151 352.6371,-187"/>
<text text-anchor="middle" x="248" y="-164.8" font-family="Times,serif" font-size="14.00" fill="#000000">RaFtcExpansionToolPanelModule</text>
</g>
<!-- ExpansionToolPanelComponent&#45;&gt;RaFtcExpansionToolPanelModule -->
<g id="edge1" class="edge">
<title>ExpansionToolPanelComponent&#45;&gt;RaFtcExpansionToolPanelModule</title>
<path fill="none" stroke="#000000" d="M294.9141,-122.1061C294.9141,-122.1061 294.9141,-140.991 294.9141,-140.991"/>
<polygon fill="#000000" stroke="#000000" points="291.4142,-140.9909 294.9141,-150.991 298.4142,-140.991 291.4142,-140.9909"/>
</g>
<!-- ExpansionToolPanelComponent  -->
<g id="node4" class="node">
<title>ExpansionToolPanelComponent </title>
<polygon fill="#fb8072" stroke="#000000" points="348.981,-252 147.019,-252 147.019,-216 348.981,-216 348.981,-252"/>
<text text-anchor="middle" x="248" y="-229.8" font-family="Times,serif" font-size="14.00" fill="#000000">ExpansionToolPanelComponent </text>
</g>
<!-- RaFtcExpansionToolPanelModule&#45;&gt;ExpansionToolPanelComponent  -->
<g id="edge3" class="edge">
<title>RaFtcExpansionToolPanelModule&#45;&gt;ExpansionToolPanelComponent </title>
<path fill="none" stroke="#000000" stroke-dasharray="5,2" d="M248,-187.1061C248,-187.1061 248,-205.991 248,-205.991"/>
<polygon fill="#000000" stroke="#000000" points="244.5001,-205.9909 248,-215.991 251.5001,-205.991 244.5001,-205.9909"/>
</g>
<!-- RaFtcExpansionModule -->
<g id="node3" class="node">
<title>RaFtcExpansionModule</title>
<polygon fill="#8dd3c7" stroke="#000000" points="213.0912,-122 210.0912,-126 189.0912,-126 186.0912,-122 60.9088,-122 60.9088,-86 213.0912,-86 213.0912,-122"/>
<text text-anchor="middle" x="137" y="-99.8" font-family="Times,serif" font-size="14.00" fill="#000000">RaFtcExpansionModule</text>
</g>
<!-- RaFtcExpansionModule&#45;&gt;RaFtcExpansionToolPanelModule -->
<g id="edge2" class="edge">
<title>RaFtcExpansionModule&#45;&gt;RaFtcExpansionToolPanelModule</title>
<path fill="none" stroke="#000000" d="M178.1136,-122.1061C178.1136,-122.1061 178.1136,-140.991 178.1136,-140.991"/>
<polygon fill="#000000" stroke="#000000" points="174.6137,-140.9909 178.1136,-150.991 181.6137,-140.991 174.6137,-140.9909"/>
</g>
</g>
</svg>
