<?xml version="1.0" encoding="UTF-8" standalone="no"?>
<!DOCTYPE svg PUBLIC "-//W3C//DTD SVG 1.1//EN"
 "http://www.w3.org/Graphics/SVG/1.1/DTD/svg11.dtd">
<!-- Generated by graphviz version 2.40.1 (20161225.0304)
 -->
<!-- Title: dependencies Pages: 1 -->
<svg width="504pt" height="284pt"
 viewBox="0.00 0.00 504.00 284.00" xmlns="http://www.w3.org/2000/svg" xmlns:xlink="http://www.w3.org/1999/xlink">
<g id="graph0" class="graph" transform="scale(1 1) rotate(0) translate(4 280)">
<title>dependencies</title>
<polygon fill="#ffffff" stroke="transparent" points="-4,4 -4,-280 500,-280 500,4 -4,4"/>
<text text-anchor="start" x="227.0091" y="-42.4" font-family="sans-serif" font-weight="bold" font-size="14.00" fill="#000000">Legend</text>
<polygon fill="#ffffb3" stroke="transparent" points="14,-10 14,-30 34,-30 34,-10 14,-10"/>
<text text-anchor="start" x="37.629" y="-15.4" font-family="sans-serif" font-size="14.00" fill="#000000"> &#160;Declarations</text>
<polygon fill="#8dd3c7" stroke="transparent" points="127,-10 127,-30 147,-30 147,-10 127,-10"/>
<text text-anchor="start" x="150.7251" y="-15.4" font-family="sans-serif" font-size="14.00" fill="#000000"> &#160;Module</text>
<polygon fill="#80b1d3" stroke="transparent" points="213,-10 213,-30 233,-30 233,-10 213,-10"/>
<text text-anchor="start" x="236.7812" y="-15.4" font-family="sans-serif" font-size="14.00" fill="#000000"> &#160;Bootstrap</text>
<polygon fill="#fdb462" stroke="transparent" points="310,-10 310,-30 330,-30 330,-10 310,-10"/>
<text text-anchor="start" x="333.6732" y="-15.4" font-family="sans-serif" font-size="14.00" fill="#000000"> &#160;Providers</text>
<polygon fill="#fb8072" stroke="transparent" points="406,-10 406,-30 426,-30 426,-10 406,-10"/>
<text text-anchor="start" x="429.7258" y="-15.4" font-family="sans-serif" font-size="14.00" fill="#000000"> &#160;Exports</text>
<g id="clust1" class="cluster">
<title>cluster_RaFtcMapModule</title>
<polygon fill="none" stroke="#000000" stroke-dasharray="1,5" points="98,-70 98,-268 398,-268 398,-70 98,-70"/>
</g>
<g id="clust2" class="cluster">
<title>cluster_RaFtcMapModule_declarations</title>
<polygon fill="none" stroke="#000000" points="268,-78 268,-130 390,-130 390,-78 268,-78"/>
</g>
<g id="clust4" class="cluster">
<title>cluster_RaFtcMapModule_imports</title>
<polygon fill="none" stroke="#000000" points="106,-78 106,-130 260,-130 260,-78 106,-78"/>
</g>
<g id="clust5" class="cluster">
<title>cluster_RaFtcMapModule_exports</title>
<polygon fill="none" stroke="#000000" points="192,-208 192,-260 318,-260 318,-208 192,-208"/>
</g>
<!-- MapComponent -->
<g id="node1" class="node">
<title>MapComponent</title>
<polygon fill="#ffffb3" stroke="#000000" points="382.4916,-122 275.5084,-122 275.5084,-86 382.4916,-86 382.4916,-122"/>
<text text-anchor="middle" x="329" y="-99.8" font-family="Times,serif" font-size="14.00" fill="#000000">MapComponent</text>
</g>
<!-- RaFtcMapModule -->
<g id="node2" class="node">
<title>RaFtcMapModule</title>
<polygon fill="#8dd3c7" stroke="#000000" points="314.1485,-187 311.1485,-191 290.1485,-191 287.1485,-187 195.8515,-187 195.8515,-151 314.1485,-151 314.1485,-187"/>
<text text-anchor="middle" x="255" y="-164.8" font-family="Times,serif" font-size="14.00" fill="#000000">RaFtcMapModule</text>
</g>
<!-- MapComponent&#45;&gt;RaFtcMapModule -->
<g id="edge1" class="edge">
<title>MapComponent&#45;&gt;RaFtcMapModule</title>
<path fill="none" stroke="#000000" d="M294.9141,-122.1061C294.9141,-122.1061 294.9141,-140.991 294.9141,-140.991"/>
<polygon fill="#000000" stroke="#000000" points="291.4142,-140.9909 294.9141,-150.991 298.4142,-140.991 291.4142,-140.9909"/>
</g>
<!-- MapComponent  -->
<g id="node4" class="node">
<title>MapComponent </title>
<polygon fill="#fb8072" stroke="#000000" points="310.4927,-252 199.5073,-252 199.5073,-216 310.4927,-216 310.4927,-252"/>
<text text-anchor="middle" x="255" y="-229.8" font-family="Times,serif" font-size="14.00" fill="#000000">MapComponent </text>
</g>
<!-- RaFtcMapModule&#45;&gt;MapComponent  -->
<g id="edge3" class="edge">
<title>RaFtcMapModule&#45;&gt;MapComponent </title>
<path fill="none" stroke="#000000" stroke-dasharray="5,2" d="M255,-187.1061C255,-187.1061 255,-205.991 255,-205.991"/>
<polygon fill="#000000" stroke="#000000" points="251.5001,-205.9909 255,-215.991 258.5001,-205.991 251.5001,-205.9909"/>
</g>
<!-- RaFtcUtilitiesModule -->
<g id="node3" class="node">
<title>RaFtcUtilitiesModule</title>
<polygon fill="#8dd3c7" stroke="#000000" points="252.0982,-122 249.0982,-126 228.0982,-126 225.0982,-122 113.9018,-122 113.9018,-86 252.0982,-86 252.0982,-122"/>
<text text-anchor="middle" x="183" y="-99.8" font-family="Times,serif" font-size="14.00" fill="#000000">RaFtcUtilitiesModule</text>
</g>
<!-- RaFtcUtilitiesModule&#45;&gt;RaFtcMapModule -->
<g id="edge2" class="edge">
<title>RaFtcUtilitiesModule&#45;&gt;RaFtcMapModule</title>
<path fill="none" stroke="#000000" d="M223.8626,-122.1061C223.8626,-122.1061 223.8626,-140.991 223.8626,-140.991"/>
<polygon fill="#000000" stroke="#000000" points="220.3626,-140.9909 223.8626,-150.991 227.3626,-140.991 220.3626,-140.9909"/>
</g>
</g>
</svg>
