<?xml version="1.0" encoding="UTF-8" standalone="no"?>
<!DOCTYPE svg PUBLIC "-//W3C//DTD SVG 1.1//EN"
 "http://www.w3.org/Graphics/SVG/1.1/DTD/svg11.dtd">
<!-- Generated by graphviz version 2.40.1 (20161225.0304)
 -->
<!-- Title: dependencies Pages: 1 -->
<svg width="1200pt" height="349pt"
 viewBox="0.00 0.00 1200.00 349.00" xmlns="http://www.w3.org/2000/svg" xmlns:xlink="http://www.w3.org/1999/xlink">
<g id="graph0" class="graph" transform="scale(1 1) rotate(0) translate(4 345)">
<title>dependencies</title>
<polygon fill="#ffffff" stroke="transparent" points="-4,4 -4,-345 1196,-345 1196,4 -4,4"/>
<text text-anchor="start" x="575.0091" y="-42.4" font-family="sans-serif" font-weight="bold" font-size="14.00" fill="#000000">Legend</text>
<polygon fill="#ffffb3" stroke="transparent" points="362,-10 362,-30 382,-30 382,-10 362,-10"/>
<text text-anchor="start" x="385.629" y="-15.4" font-family="sans-serif" font-size="14.00" fill="#000000"> &#160;Declarations</text>
<polygon fill="#8dd3c7" stroke="transparent" points="475,-10 475,-30 495,-30 495,-10 475,-10"/>
<text text-anchor="start" x="498.7251" y="-15.4" font-family="sans-serif" font-size="14.00" fill="#000000"> &#160;Module</text>
<polygon fill="#80b1d3" stroke="transparent" points="561,-10 561,-30 581,-30 581,-10 561,-10"/>
<text text-anchor="start" x="584.7812" y="-15.4" font-family="sans-serif" font-size="14.00" fill="#000000"> &#160;Bootstrap</text>
<polygon fill="#fdb462" stroke="transparent" points="658,-10 658,-30 678,-30 678,-10 658,-10"/>
<text text-anchor="start" x="681.6732" y="-15.4" font-family="sans-serif" font-size="14.00" fill="#000000"> &#160;Providers</text>
<polygon fill="#fb8072" stroke="transparent" points="754,-10 754,-30 774,-30 774,-10 754,-10"/>
<text text-anchor="start" x="777.7258" y="-15.4" font-family="sans-serif" font-size="14.00" fill="#000000"> &#160;Exports</text>
<g id="clust1" class="cluster">
<title>cluster_RaFtcDatetimePickerModule</title>
<polygon fill="none" stroke="#000000" stroke-dasharray="1,5" points="8,-70 8,-333 1184,-333 1184,-70 8,-70"/>
</g>
<g id="clust2" class="cluster">
<title>cluster_RaFtcDatetimePickerModule_declarations</title>
<polygon fill="none" stroke="#000000" points="516,-143 516,-195 700,-195 700,-143 516,-143"/>
</g>
<g id="clust3" class="cluster">
<title>cluster_RaFtcDatetimePickerModule_DatetimePickerComponent_providers</title>
<polygon fill="none" stroke="#000000" points="16,-78 16,-130 1176,-130 1176,-78 16,-78"/>
</g>
<g id="clust5" class="cluster">
<title>cluster_RaFtcDatetimePickerModule_exports</title>
<polygon fill="none" stroke="#000000" points="514,-273 514,-325 702,-325 702,-273 514,-273"/>
</g>
<!-- DatetimePickerComponent -->
<g id="node1" class="node">
<title>DatetimePickerComponent</title>
<polygon fill="#ffffb3" stroke="#000000" points="692.4087,-187 523.5913,-187 523.5913,-151 692.4087,-151 692.4087,-187"/>
<text text-anchor="middle" x="608" y="-164.8" font-family="Times,serif" font-size="14.00" fill="#000000">DatetimePickerComponent</text>
</g>
<!-- RaFtcDatetimePickerModule -->
<g id="node2" class="node">
<title>RaFtcDatetimePickerModule</title>
<polygon fill="#8dd3c7" stroke="#000000" points="698.0646,-252 695.0646,-256 674.0646,-256 671.0646,-252 517.9354,-252 517.9354,-216 698.0646,-216 698.0646,-252"/>
<text text-anchor="middle" x="608" y="-229.8" font-family="Times,serif" font-size="14.00" fill="#000000">RaFtcDatetimePickerModule</text>
</g>
<!-- DatetimePickerComponent&#45;&gt;RaFtcDatetimePickerModule -->
<g id="edge1" class="edge">
<title>DatetimePickerComponent&#45;&gt;RaFtcDatetimePickerModule</title>
<path fill="none" stroke="#000000" d="M608,-187.1061C608,-187.1061 608,-205.991 608,-205.991"/>
<polygon fill="#000000" stroke="#000000" points="604.5001,-205.9909 608,-215.991 611.5001,-205.991 604.5001,-205.9909"/>
</g>
<!-- DatetimePickerComponent  -->
<g id="node5" class="node">
<title>DatetimePickerComponent </title>
<polygon fill="#fb8072" stroke="#000000" points="693.9082,-317 522.0918,-317 522.0918,-281 693.9082,-281 693.9082,-317"/>
<text text-anchor="middle" x="608" y="-294.8" font-family="Times,serif" font-size="14.00" fill="#000000">DatetimePickerComponent </text>
</g>
<!-- RaFtcDatetimePickerModule&#45;&gt;DatetimePickerComponent  -->
<g id="edge4" class="edge">
<title>RaFtcDatetimePickerModule&#45;&gt;DatetimePickerComponent </title>
<path fill="none" stroke="#000000" stroke-dasharray="5,2" d="M608,-252.1061C608,-252.1061 608,-270.991 608,-270.991"/>
<polygon fill="#000000" stroke="#000000" points="604.5001,-270.9909 608,-280.991 611.5001,-270.991 604.5001,-270.9909"/>
</g>
<!-- { provide: DatetimeAdapter, useClass: MomentDatetimeAdapter } -->
<g id="node3" class="node">
<title>{ provide: DatetimeAdapter, useClass: MomentDatetimeAdapter }</title>
<ellipse fill="#fdb462" stroke="#000000" cx="899" cy="-104" rx="269.3256" ry="18"/>
<text text-anchor="middle" x="899" y="-99.8" font-family="Times,serif" font-size="14.00" fill="#000000">{ provide: DatetimeAdapter, useClass: MomentDatetimeAdapter }</text>
</g>
<!-- { provide: DatetimeAdapter, useClass: MomentDatetimeAdapter }&#45;&gt;DatetimePickerComponent -->
<g id="edge2" class="edge">
<title>{ provide: DatetimeAdapter, useClass: MomentDatetimeAdapter }&#45;&gt;DatetimePickerComponent</title>
<path fill="none" stroke="#000000" d="M661.0207,-112.4976C661.0207,-112.4976 661.0207,-140.9128 661.0207,-140.9128"/>
<polygon fill="#000000" stroke="#000000" points="657.5208,-140.9127 661.0207,-150.9128 664.5208,-140.9128 657.5208,-140.9127"/>
</g>
<!-- { provide: MAT_DATETIME_FORMATS, useClass: MomentFormats } -->
<g id="node4" class="node">
<title>{ provide: MAT_DATETIME_FORMATS, useClass: MomentFormats }</title>
<ellipse fill="#fdb462" stroke="#000000" cx="318" cy="-104" rx="293.7537" ry="18"/>
<text text-anchor="middle" x="318" y="-99.8" font-family="Times,serif" font-size="14.00" fill="#000000">{ provide: MAT_DATETIME_FORMATS, useClass: MomentFormats }</text>
</g>
<!-- { provide: MAT_DATETIME_FORMATS, useClass: MomentFormats }&#45;&gt;DatetimePickerComponent -->
<g id="edge3" class="edge">
<title>{ provide: MAT_DATETIME_FORMATS, useClass: MomentFormats }&#45;&gt;DatetimePickerComponent</title>
<path fill="none" stroke="#000000" d="M567.8364,-113.591C567.8364,-113.591 567.8364,-140.748 567.8364,-140.748"/>
<polygon fill="#000000" stroke="#000000" points="564.3365,-140.7479 567.8364,-150.748 571.3365,-140.748 564.3365,-140.7479"/>
</g>
</g>
</svg>
