<?xml version="1.0" encoding="utf-8"?>
<!-- Generator: Adobe Illustrator 23.0.0, SVG Export Plug-In . SVG Version: 6.00 Build 0)  -->
<svg version="1.1" id="Layer_1" xmlns="http://www.w3.org/2000/svg" xmlns:xlink="http://www.w3.org/1999/xlink" x="0px" y="0px"
	 viewBox="0 0 1024 1024" style="enable-background:new 0 0 1024 1024;" xml:space="preserve">
<style type="text/css">
	.st0{fill:#FFFFFF;}
</style>
<g>
	<path class="st0" d="M352.3,0c65.8,0.1,131.6,0.2,197.4,0.2c47.4,0,94.9,0,142.3,0c4.8,0,10-0.8,11.8,5.2c1.7,5.7-2.4,8.4-6.3,11.4
		c-132.9,98.4-265.6,196.9-398.4,295.4c-5.1,3.8-10.1,5.2-16.2,5.1c-44.5-0.2-88.9,0-133.4-0.3c-7,0-8.9,1.7-8.8,8.8
		c0.4,31.7,0,63.5,0.3,95.2c0,5.8-1.5,9.6-6.5,13.2C109.1,452.5,84,471.3,58.8,490c-13.6,10.1-20.4,23.5-20.4,40.4
		c0,47.4-0.2,94.9,0.1,142.3c0.2,30.6,15.4,51.9,42.9,64.9c117.7,55.4,235.3,111,353,166.4c72.2,34,144.4,68,216.7,102.1
		c10.5,5,11.2,8.2,3.7,17.2c-103.7,0-207.6,0-311.3,0c-1-2.6-3.5-1.7-5.3-2.1c-32.3-5.5-59.8-20-82.8-43.1
		c-70.1-69.8-140.1-139.8-210.1-209.8C23.2,746,8.7,719.8,2.9,688.8c-0.5-2.9,0.5-6.6-2.9-8.7C0,568,0,456,0,343.9
		c2.4-0.6,1.7-2.8,1.9-4.4c5.3-34.2,21.1-62.8,45.7-87.3c68.1-67.3,135.9-134.9,203.1-203.1C279,20.5,312.2,3.2,352.3,0z"/>
	<path class="st0" d="M486.6,662.5c-10.1-30.3-20.4-58.7-28.8-87.6c-8-27.3-26.7-42.2-52.1-51.1c-3.2-1.2-6.7-1.8-10.3-2.8
		c2.7-3.5,6.7-2.5,10-3.1c43.1-9.5,70.3-41.6,73.1-86.7c0.9-13.3,0.6-26.6-2.4-39.7c-7-30.5-26.2-50.2-54.9-61.6
		c-15.3-6-31.2-9.2-47.4-10.7c-2.9-0.2-5.7-0.6-10.7-1.3c6.5-4.5,11.4-8,16.4-11.4C501,224.5,622.6,142.5,744.2,60.6
		c15.7-10.5,31.6-9,45,4.4c65.6,65.6,131.3,131.1,196.9,196.9c26.3,26.3,37.9,58.7,37.9,95.6c0,102.5,0,205.2,0,307.7
		c0,39-13.4,71.9-41.5,99.5c-69.1,68-137.5,136.8-206.2,205.1c-14.2,14.1-25.6,16.4-44.2,8.6C575,912.6,417.9,846.7,260.7,781
		c-60.9-25.4-121.7-50.9-182.5-76.3c-13.9-5.7-18-12.1-18-27.3c0-46.9,0.1-93.7-0.1-140.5c-0.1-10.8,3.9-18.5,13-24.5
		c22.2-14.6,44.1-29.7,67.3-45.3c0.2,4.5,0.4,7.7,0.4,10.7c0,70.3,0.1,140.5-0.1,210.8c0,7.1,1.4,9.5,9.1,9.4
		c32.9-0.4,65.8-0.4,98.8,0c7.1,0.1,9.5-1.5,9.4-9.1c-0.4-40.3,0-80.7-0.4-120.9c-0.1-7.6,2.1-9.5,9.3-9c13.9,1.1,27.8-1.2,41.7,1.6
		c11.3,2.3,18.4,8.4,22,19.4c11.4,33.9,23,67.8,34.4,101.7c3.2,9.5,11.2,16.1,21.2,16.1c67,0.1,134.1,0,201,0.2c4.5,0,6-2.1,7.4-5.7
		c7.3-20,15.1-39.8,22.2-59.9c1.8-5.1,4.2-6.7,9.5-6.7c41.5,0.2,83.1,0.2,124.5,0c5.5,0,7.7,1.9,9.3,6.9
		c3.5,10.9,7.5,21.8,11.5,32.6c7.6,20.2,25.4,32.7,47.1,32.8c30.2,0.1,60.4,0,91.9,0c-3.8-9.6-7.3-18.6-10.8-27.5
		c-45.7-114.5-91.5-229-137-343.6c-2.8-7.1-6.2-9.6-14.1-9.5c-32.9,0.5-65.8,0.2-98.8,0.2c-18.6,0-27.7,6.1-34.5,23.4
		C574,445.1,532.5,549.3,490.9,653.4C489.7,655.8,488.4,658.4,486.6,662.5z"/>
	<path class="st0" d="M295.5,398.7c10.5,0.4,23-1.1,35.2,1.8c16.8,4,25.8,14.3,27,31.7c0.3,4.1,0.2,8.3,0,12.5
		c-1.2,20.5-12.2,32.2-32.5,34.3c-20,2.2-40.2,0.5-60.3,1.1c-4.4,0.1-5.4-1.9-5.4-5.8c0.1-23.4,0.1-46.8,0-70.2
		c0-4.4,1.6-5.5,5.7-5.4C274.6,398.9,284.1,398.7,295.5,398.7z"/>
	<path class="st0" d="M728,541.6c-25,0-48.9-0.1-72.9,0c-4.8,0-4.5-2.2-3.4-5.5c12.5-33.7,24.8-67.3,37.9-103
		C702.8,470.1,715.3,505.4,728,541.6z"/>
</g>
</svg>
