<?xml version="1.0" encoding="UTF-8"?>
<svg id="b" data-name="Layer 2" xmlns="http://www.w3.org/2000/svg" width="430" height="402" viewBox="0 0 430 402">
  <defs>
    <style>
      .d {
        fill: #fff;
      }
    </style>
  </defs>
  <g id="c" data-name="Layer 1">
    <g>
      <g>
        <path class="d" d="M.459,333.147h12.488c8.325,0,13.961.321,16.91.963,2.947.643,5.349,2.284,7.208,4.924,1.857,2.641,2.787,6.852,2.787,12.635,0,5.28-.657,8.829-1.97,10.644-1.313,1.816-3.897,2.906-7.753,3.269,3.492.866,5.839,2.025,7.04,3.479,1.201,1.452,1.948,2.787,2.242,4.001.293,1.215.44,4.561.44,10.037v17.894h-16.386v-22.545c0-3.633-.287-5.881-.859-6.748-.573-.866-2.074-1.299-4.505-1.299v30.591H.459v-67.847ZM18.102,344.756v15.086c1.983,0,3.374-.272,4.169-.818.797-.544,1.195-2.311,1.195-5.301v-3.729c0-2.152-.385-3.562-1.152-4.232-.769-.671-2.173-1.006-4.212-1.006Z"/>
        <path class="d" d="M62.274,333.147v8.842h-17.433v-8.842h17.433ZM62.274,345.384v55.61h-17.433v-55.61h17.433Z"/>
        <path class="d" d="M101.773,363.153h-15.002v-3.017c0-2.571-.147-4.198-.441-4.882-.293-.684-1.026-1.027-2.2-1.027-.951,0-1.662.316-2.138.943-.475.629-.712,1.572-.712,2.83,0,1.704.118,2.954.356,3.751.238.795.95,1.668,2.138,2.619,1.187.95,3.625,2.333,7.313,4.148,4.916,2.403,8.144,4.666,9.68,6.789,1.536,2.124,2.305,5.21,2.305,9.261,0,4.526-.587,7.942-1.76,10.247s-3.137,4.079-5.888,5.323c-2.752,1.242-6.07,1.864-9.953,1.864-4.303,0-7.983-.671-11.043-2.012-3.059-1.341-5.162-3.156-6.307-5.447-1.146-2.292-1.719-5.756-1.719-10.393v-2.682h15.004v3.52c0,2.99.188,4.93.565,5.825.378.894,1.124,1.341,2.242,1.341,1.201,0,2.039-.3,2.514-.9.474-.601.713-1.866.713-3.793,0-2.653-.309-4.316-.923-4.986-.643-.671-3.925-2.654-9.848-5.952-4.974-2.792-8.004-5.329-9.094-7.606-1.089-2.276-1.634-4.98-1.634-8.108,0-4.442.587-7.718,1.76-9.828,1.173-2.108,3.164-3.735,5.971-4.881,2.808-1.146,6.069-1.719,9.786-1.719,3.688,0,6.823.468,9.408,1.403,2.584.937,4.568,2.173,5.951,3.709,1.383,1.536,2.222,2.962,2.514,4.275.294,1.313.44,3.367.44,6.16v3.227Z"/>
        <path class="d" d="M142.985,345.384l-6.873,22.148,8.927,33.462h-16.282l-5.28-24.237-.021,24.237h-16.93v-67.847h16.93l.021,28.482,5.28-16.245h14.228Z"/>
        <path class="d" d="M217.622,333.147v67.847h-15.422l-.022-45.804-6.139,45.804h-10.937l-6.475-44.757-.021,44.757h-15.422v-67.847h22.829c.677,4.079,1.375,8.887,2.094,14.424l2.505,17.258,4.055-31.682h22.955Z"/>
        <path class="d" d="M261.018,364.913v13.619c0,5.001-.251,8.669-.754,11-.503,2.334-1.579,4.513-3.226,6.537-1.65,2.027-3.766,3.52-6.349,4.485-2.584.964-5.552,1.446-8.905,1.446-3.745,0-6.915-.412-9.513-1.236-2.598-.822-4.617-2.067-6.055-3.729-1.44-1.661-2.466-3.673-3.08-6.035-.615-2.361-.922-5.901-.922-10.624v-14.248c0-5.168.558-9.205,1.676-12.111,1.117-2.905,3.129-5.238,6.035-6.999,2.905-1.759,6.621-2.64,11.147-2.64,3.799,0,7.061.565,9.786,1.697,2.723,1.132,4.826,2.605,6.307,4.421,1.48,1.816,2.494,3.688,3.038,5.616.545,1.928.817,4.861.817,8.8ZM244.088,360.722c0-2.85-.154-4.644-.46-5.386-.309-.74-.964-1.11-1.97-1.11s-1.676.371-2.012,1.11c-.335.742-.503,2.536-.503,5.386v25.103c0,2.626.168,4.337.503,5.133s.991,1.194,1.97,1.194c1.006,0,1.668-.363,1.99-1.09.321-.726.482-2.291.482-4.694v-25.647Z"/>
        <path class="d" d="M282.564,345.384l-.294,5.123c1.229-2.043,2.73-3.574,4.505-4.596,1.774-1.022,3.82-1.532,6.139-1.532,2.905,0,5.28.685,7.124,2.054s3.031,3.094,3.562,5.175c.53,2.083.797,5.553.797,10.415v38.972h-16.93v-38.512c0-3.827-.126-6.16-.377-6.998-.252-.838-.951-1.258-2.096-1.258-1.201,0-1.955.483-2.262,1.446-.309.964-.461,3.542-.461,7.733v37.59h-16.93v-55.61h17.224Z"/>
        <path class="d" d="M326.617,333.147v8.842h-17.433v-8.842h17.433ZM326.617,345.384v55.61h-17.433v-55.61h17.433Z"/>
        <path class="d" d="M350.168,337.966v8.759h4.568v8.8h-4.568v29.754c0,3.66.188,5.699.566,6.118.377.419,1.948.629,4.714.629v8.967h-6.831c-3.855,0-6.607-.16-8.255-.481-1.649-.321-3.101-1.061-4.358-2.221s-2.04-2.487-2.347-3.982c-.308-1.495-.461-5.008-.461-10.54v-28.245h-3.645v-8.8h3.645v-8.759h16.973Z"/>
        <path class="d" d="M396.314,364.913v13.619c0,5.001-.251,8.669-.754,11-.503,2.334-1.579,4.513-3.226,6.537-1.65,2.027-3.766,3.52-6.349,4.485-2.584.964-5.552,1.446-8.905,1.446-3.745,0-6.915-.412-9.513-1.236-2.598-.822-4.617-2.067-6.055-3.729-1.44-1.661-2.466-3.673-3.08-6.035-.615-2.361-.922-5.901-.922-10.624v-14.248c0-5.168.558-9.205,1.676-12.111,1.117-2.905,3.129-5.238,6.035-6.999,2.905-1.759,6.621-2.64,11.147-2.64,3.799,0,7.061.565,9.786,1.697,2.723,1.132,4.826,2.605,6.307,4.421,1.48,1.816,2.494,3.688,3.038,5.616.545,1.928.817,4.861.817,8.8ZM379.383,360.722c0-2.85-.154-4.644-.46-5.386-.309-.74-.964-1.11-1.97-1.11s-1.676.371-2.012,1.11c-.335.742-.503,2.536-.503,5.386v25.103c0,2.626.168,4.337.503,5.133s.991,1.194,1.97,1.194c1.006,0,1.668-.363,1.99-1.09.321-.726.482-2.291.482-4.694v-25.647Z"/>
        <path class="d" d="M417.565,345.384l-.671,7.313c2.458-5.238,6.02-8.011,10.687-8.319v19.57c-3.102,0-5.379.42-6.831,1.258-1.453.838-2.347,2.005-2.682,3.498-.335,1.495-.503,4.938-.503,10.33v21.959h-16.93v-55.61h16.93Z"/>
      </g>
      <g>
        <g>
          <rect class="d" x="220" y="110" width="100" height="100"/>
          <rect class="d" x="330" y="109.999" width="100" height="100.001"/>
          <rect class="d" x="220" y="220" width="100" height="100"/>
          <rect class="d" x="330" y="220" width="100" height="100"/>
          <polygon class="d" points="220 0 220 100 320 100 220 0"/>
          <polygon class="d" points="430 0 330 100 430 100 430 0"/>
        </g>
        <g>
          <rect class="d" y="110" width="100" height="100"/>
          <rect class="d" y="220" width="100" height="100"/>
          <polygon class="d" points="110 320 210 320 110 220 110 320"/>
          <path class="d" d="M100,100V0C44.771,0,0,44.771,0,100h100Z"/>
          <path class="d" d="M110,100h100C210,44.771,165.229,0,110,0v100Z"/>
          <path class="d" d="M110,110v100c55.229,0,100-44.771,100-100h-100Z"/>
        </g>
      </g>
    </g>
  </g>
</svg>